<?xml version="1.0" encoding="UTF-8"?><svg xmlns="http://www.w3.org/2000/svg" viewBox="0 0 206 40" width="206" height="40"><path d="M47.4,26h-2.8V14.42h-3.6v-2.42h10v2.42h-3.6v11.58Zm13.63-6.97v6.63h-2.66v-6.22c0-.74-.11-1.26-.32-1.58s-.55-.47-1.03-.47-.87,.21-1.14,.64c-.27,.43-.41,1.02-.41,1.78v5.85h-2.66V11.46h2.66v5.51c.19-.57,.51-1,.97-1.31,.46-.31,1.01-.47,1.66-.47,.97,0,1.7,.32,2.2,.96,.49,.64,.74,1.6,.74,2.87m8.36,.38c-.01-.71-.19-1.24-.54-1.6-.35-.36-.87-.54-1.55-.54-.62,0-1.11,.19-1.47,.56-.37,.37-.58,.91-.65,1.59h4.22Zm2.27,5.74c-.62,.26-1.26,.45-1.9,.58-.65,.13-1.33,.19-2.05,.19-1.71,0-3.02-.46-3.93-1.37-.91-.92-1.36-2.23-1.36-3.96s.44-2.98,1.31-3.95c.87-.97,2.06-1.45,3.57-1.45s2.7,.45,3.54,1.35c.84,.9,1.26,2.16,1.26,3.79v1.09h-6.94c0,.8,.24,1.4,.71,1.8,.47,.4,1.17,.59,2.1,.59,.62,0,1.22-.09,1.82-.26,.6-.18,1.22-.46,1.88-.84v2.46Zm9.12-10.86v4h1.11c.88,0,1.5-.15,1.86-.45,.36-.3,.54-.82,.54-1.55s-.18-1.25-.54-1.55c-.36-.3-.98-.45-1.86-.45h-1.11Zm-2.7-2.26h3.7c1.88,0,3.24,.33,4.07,1,.83,.67,1.24,1.76,1.24,3.26s-.41,2.59-1.24,3.26c-.83,.67-2.18,1-4.07,1h-1.01v5.1h-2.7V12.04Zm19.39,6.22c-.29-.27-.64-.47-1.03-.6-.39-.13-.82-.2-1.29-.2-.57,0-1.06,.1-1.49,.3-.42,.2-.75,.49-.98,.86-.15,.23-.25,.51-.31,.84-.06,.33-.09,.83-.09,1.5v4.71h-2.68V15.44h2.68v1.59c.26-.58,.66-1.04,1.21-1.36s1.18-.48,1.9-.48c.37,0,.72,.04,1.07,.13,.35,.09,.68,.22,1,.39v2.55Zm4.46-4.67h2.68v-3.12h-2.68v3.12Zm-2.62,1.85h5.31v8.17h3.33v2.05h-9.35v-2.05h3.34v-6.11h-2.62v-2.05Zm18.87,0l-3.26,10.22h-3.3l-3.26-10.22h2.72l2.19,7.98,2.2-7.98h2.72Zm6.2,5.42c-1,0-1.7,.13-2.09,.38-.4,.26-.59,.69-.59,1.31,0,.46,.14,.83,.41,1.1,.27,.27,.65,.41,1.12,.41,.71,0,1.26-.27,1.65-.8,.39-.53,.59-1.28,.59-2.23v-.18h-1.07Zm3.73-1.03v5.83h-2.66v-1.14c-.32,.45-.74,.8-1.24,1.04-.51,.24-1.06,.36-1.67,.36-1.17,0-2.07-.31-2.72-.92-.65-.61-.97-1.47-.97-2.57,0-1.19,.39-2.07,1.16-2.64,.77-.57,1.97-.85,3.59-.85h1.86v-.45c0-.43-.16-.76-.47-.98s-.78-.33-1.39-.33c-.64,0-1.26,.08-1.86,.24-.6,.16-1.23,.42-1.88,.77v-2.28c.59-.24,1.19-.42,1.8-.54,.61-.12,1.26-.17,1.94-.17,1.66,0,2.83,.34,3.51,1.01,.67,.68,1.01,1.88,1.01,3.62h0Zm9.91,5.31c-.45,.26-.94,.46-1.45,.59-.52,.13-1.08,.2-1.67,.2-1.58,0-2.81-.47-3.7-1.42-.89-.95-1.34-2.26-1.34-3.94s.45-3,1.34-3.96c.9-.95,2.13-1.43,3.71-1.43,.55,0,1.08,.06,1.59,.19,.51,.13,1.02,.33,1.52,.59v2.45c-.39-.33-.82-.59-1.29-.77-.47-.18-.95-.27-1.45-.27-.87,0-1.54,.28-2.01,.83-.47,.55-.7,1.34-.7,2.36s.23,1.81,.7,2.35c.47,.55,1.14,.82,2.01,.82,.52,0,1-.09,1.45-.26,.45-.17,.88-.44,1.28-.79v2.46Zm7.14,1.62c-.36,.96-.79,1.66-1.29,2.1-.5,.44-1.11,.66-1.83,.66h-2.21v-2.03h1.09c.55,0,.95-.09,1.21-.28,.26-.19,.52-.62,.78-1.29l.2-.55-3.9-9.94h2.82l2.34,6.63,2.24-6.63h2.82l-4.25,11.33Zm13.19-7.08c-1.36-.52-2.28-1.06-2.76-1.63s-.72-1.33-.72-2.3c0-1.24,.4-2.21,1.19-2.91,.79-.71,1.88-1.06,3.27-1.06,.63,0,1.26,.07,1.88,.21,.63,.14,1.25,.35,1.87,.63v2.63c-.58-.41-1.17-.72-1.77-.93-.6-.21-1.19-.32-1.77-.32-.65,0-1.15,.13-1.5,.39-.35,.26-.52,.64-.52,1.12,0,.38,.13,.69,.38,.94,.25,.25,.78,.52,1.59,.82l1.16,.44c1.1,.4,1.91,.93,2.42,1.6,.52,.66,.78,1.5,.78,2.51,0,1.38-.41,2.4-1.22,3.08-.81,.68-2.04,1.02-3.69,1.02-.68,0-1.36-.08-2.04-.24-.68-.16-1.34-.4-1.97-.72v-2.78c.72,.51,1.42,.89,2.09,1.14,.67,.25,1.34,.37,2,.37s1.18-.15,1.55-.45c.37-.3,.55-.72,.55-1.26,0-.41-.12-.76-.37-1.07-.24-.31-.6-.55-1.06-.73l-1.33-.5Zm11.99-7.15v2.9h3.5v2.05h-3.5v4.84c0,.46,.11,.78,.33,.98,.22,.2,.59,.3,1.11,.3h2.06v2.05h-2.25c-1.54,0-2.58-.24-3.12-.73-.54-.49-.81-1.4-.81-2.72v-4.71h-2.62v-2.05h2.62v-2.9h2.68Zm10.43,8.32c-1,0-1.7,.13-2.09,.38-.4,.26-.59,.69-.59,1.31,0,.46,.14,.83,.41,1.1,.27,.27,.65,.41,1.12,.41,.71,0,1.26-.27,1.65-.8,.39-.53,.59-1.28,.59-2.23v-.18h-1.07Zm3.73-1.03v5.83h-2.66v-1.14c-.32,.45-.74,.8-1.24,1.04-.51,.24-1.06,.36-1.67,.36-1.17,0-2.07-.31-2.72-.92-.65-.61-.97-1.47-.97-2.57,0-1.19,.39-2.07,1.16-2.64,.77-.57,1.97-.85,3.59-.85h1.86v-.45c0-.43-.16-.76-.47-.98-.31-.22-.78-.33-1.39-.33-.64,0-1.26,.08-1.86,.24-.6,.16-1.23,.42-1.88,.77v-2.28c.59-.24,1.19-.42,1.8-.54,.61-.12,1.26-.17,1.94-.17,1.66,0,2.83,.34,3.51,1.01,.67,.68,1.01,1.88,1.01,3.62h0Zm9.91,5.31c-.45,.26-.94,.46-1.45,.59-.52,.13-1.08,.2-1.67,.2-1.58,0-2.81-.47-3.7-1.42-.89-.95-1.34-2.26-1.34-3.94s.45-3,1.34-3.96c.9-.95,2.13-1.43,3.71-1.43,.55,0,1.08,.06,1.59,.19,.51,.13,1.02,.33,1.52,.59v2.45c-.39-.33-.82-.59-1.29-.77-.47-.18-.95-.27-1.45-.27-.87,0-1.54,.28-2.01,.83-.47,.55-.7,1.34-.7,2.36s.23,1.81,.7,2.35c.47,.55,1.14,.82,2.01,.82,.52,0,1-.09,1.45-.26,.45-.17,.88-.44,1.28-.79v2.46Zm2.23-13.68h2.68v7.46l3.22-3.48h3.25l-3.88,3.82,4.1,6.41h-2.96l-2.81-4.78-.91,.88v3.91h-2.68V11.46ZM12.44,14.09l-4.54-2.62,9.46-5.46,4.54,2.62-9.46,5.46Zm22.28-4.09V30l-17.36,10L0,30V10L17.36,0l17.36,10ZM2.54,11.47h0s14.82,8.55,14.82,8.55h0s0,0,0,0l2.63-1.57-4.87-2.81,12.14-7.01L17.37,2.92h0s0,0,0,0L5.22,9.92h0s0,0,0,0l-2.68,1.55h0s0,0,0,0h0Zm29.65,13.96l-14.82,8.56L2.54,25.43v3.1l14.82,8.55h0s0,0,0,0l14.82-8.55v-3.1Zm0-5.69l-14.82,8.56L2.54,19.75v3.1l14.82,8.55h0s0,0,0,0l14.82-8.55v-3.1Zm0-5.69l-14.82,8.56L2.54,14.06v3.1l14.82,8.55h0s0,0,0,0l14.82-8.55v-3.1Z" style="fill-rule:evenodd;"/></svg>