<svg xmlns="http://www.w3.org/2000/svg" viewBox="0 0 396 360" width="396" height="360"><rect x="90.99" y="129.98" width="41.78" height="41.72" rx="2.32" fill="#e5e5e5"/><rect x="155.56" y="129.98" width="41.78" height="41.72" rx="2.32" fill="#e5e5e5"/><rect x="90.99" y="194.88" width="41.78" height="41.72" rx="2.32" fill="#e5e5e5"/><rect x="155.56" y="194.88" width="41.78" height="41.72" rx="2.32" fill="#e5e5e5"/><rect x="90.99" y="65.07" width="41.78" height="41.72" rx="2.32" fill="#e5e5e5"/><rect x="220.56" y="129.98" width="41.78" height="41.72" rx="2.32" fill="#daa520"/><path d="M243.8,158.84h-8.69a3.46,3.46,0,0,1-3.45-3.45V144.25a1,1,0,0,1,1-1h13.59a1,1,0,0,1,1,1v11.14A3.46,3.46,0,0,1,243.8,158.84Zm-10.14-13.59v10.14a1.45,1.45,0,0,0,1.45,1.45h8.69a1.45,1.45,0,0,0,1.45-1.45V145.25Z" fill="#fff"/><path d="M243.36,145.25a1,1,0,0,1-1-1v-3.91a2.91,2.91,0,0,0-5.81,0v3.91a1,1,0,0,1-2,0v-3.91a4.91,4.91,0,0,1,9.81,0v3.91A1,1,0,0,1,243.36,145.25Z" fill="#fff"/><circle cx="239.45" cy="149.4" r="1.98" fill="#fff"/><path d="M239.46,154.65a1,1,0,0,1-1-1v-4.08a1,1,0,0,1,2,0v4.08A1,1,0,0,1,239.46,154.65Z" fill="#fff"/><rect x="285.56" y="129.98" width="41.78" height="41.72" rx="2.32" fill="#e5e5e5"/><rect x="350.56" y="129.98" width="41.78" height="41.72" rx="2.32" fill="#daa520"/><path d="M373.8,158.84h-8.69a3.46,3.46,0,0,1-3.45-3.45V144.25a1,1,0,0,1,1-1h13.59a1,1,0,0,1,1,1v11.14A3.46,3.46,0,0,1,373.8,158.84Zm-10.14-13.59v10.14a1.45,1.45,0,0,0,1.45,1.45h8.69a1.45,1.45,0,0,0,1.45-1.45V145.25Z" fill="#fff"/><path d="M373.36,145.25a1,1,0,0,1-1-1v-3.91a2.91,2.91,0,0,0-5.81,0v3.91a1,1,0,0,1-2,0v-3.91a4.91,4.91,0,0,1,9.81,0v3.91A1,1,0,0,1,373.36,145.25Z" fill="#fff"/><circle cx="369.45" cy="149.4" r="1.98" fill="#fff"/><path d="M369.46,154.65a1,1,0,0,1-1-1v-4.08a1,1,0,0,1,2,0v4.08A1,1,0,0,1,369.46,154.65Z" fill="#fff"/><rect x="220.56" y="259.79" width="41.78" height="41.72" rx="2.32" fill="#daa520"/><rect x="285.56" y="259.79" width="41.78" height="41.72" rx="2.32" fill="#daa520"/><rect x="350.56" y="259.79" width="41.78" height="41.72" rx="2.32" fill="#daa520"/><path d="M243.8,288.84h-8.69a3.46,3.46,0,0,1-3.45-3.45V274.25a1,1,0,0,1,1-1h13.59a1,1,0,0,1,1,1v11.14A3.46,3.46,0,0,1,243.8,288.84Zm-10.14-13.59v10.14a1.45,1.45,0,0,0,1.45,1.45h8.69a1.45,1.45,0,0,0,1.45-1.45V275.25Z" fill="#fff"/><path d="M243.36,275.25a1,1,0,0,1-1-1v-3.91a2.91,2.91,0,0,0-5.81,0v3.91a1,1,0,0,1-2,0v-3.91a4.91,4.91,0,0,1,9.81,0v3.91A1,1,0,0,1,243.36,275.25Z" fill="#fff"/><circle cx="239.45" cy="279.4" r="1.98" fill="#fff"/><path d="M239.46,284.65a1,1,0,0,1-1-1v-4.08a1,1,0,0,1,2,0v4.08A1,1,0,0,1,239.46,284.65Z" fill="#fff"/><path d="M373.8,288.84h-8.69a3.46,3.46,0,0,1-3.45-3.45V274.25a1,1,0,0,1,1-1h13.59a1,1,0,0,1,1,1v11.14A3.46,3.46,0,0,1,373.8,288.84Zm-10.14-13.59v10.14a1.45,1.45,0,0,0,1.45,1.45h8.69a1.45,1.45,0,0,0,1.45-1.45V275.25Z" fill="#fff"/><path d="M373.36,275.25a1,1,0,0,1-1-1v-3.91a2.91,2.91,0,0,0-5.81,0v3.91a1,1,0,0,1-2,0v-3.91a4.91,4.91,0,0,1,9.81,0v3.91A1,1,0,0,1,373.36,275.25Z" fill="#fff"/><circle cx="369.45" cy="279.4" r="1.98" fill="#fff"/><path d="M369.46,284.65a1,1,0,0,1-1-1v-4.08a1,1,0,0,1,2,0v4.08A1,1,0,0,1,369.46,284.65Z" fill="#fff"/><path d="M308.8,288.84h-8.69a3.46,3.46,0,0,1-3.45-3.45V274.25a1,1,0,0,1,1-1h13.59a1,1,0,0,1,1,1v11.14A3.46,3.46,0,0,1,308.8,288.84Zm-10.14-13.59v10.14a1.45,1.45,0,0,0,1.45,1.45h8.69a1.45,1.45,0,0,0,1.45-1.45V275.25Z" fill="#fff"/><path d="M308.36,275.25a1,1,0,0,1-1-1v-3.91a2.91,2.91,0,0,0-5.81,0v3.91a1,1,0,0,1-2,0v-3.91a4.91,4.91,0,0,1,9.81,0v3.91A1,1,0,0,1,308.36,275.25Z" fill="#fff"/><circle cx="304.45" cy="279.4" r="1.98" fill="#fff"/><path d="M304.46,284.65a1,1,0,0,1-1-1v-4.08a1,1,0,0,1,2,0v4.08A1,1,0,0,1,304.46,284.65Z" fill="#fff"/><rect x="285.68" y="65.07" width="41.78" height="41.72" rx="2.32" fill="#e5e5e5"/><path d="M125.81,168.07H88.67a3.34,3.34,0,0,1-3.33-3.33V127.67a3.34,3.34,0,0,1,3.33-3.33h37.14a3.33,3.33,0,0,1,3.32,3.33v37.07A3.33,3.33,0,0,1,125.81,168.07ZM88.67,126.34a1.34,1.34,0,0,0-1.33,1.33v37.07a1.34,1.34,0,0,0,1.33,1.33h37.14a1.33,1.33,0,0,0,1.32-1.33V127.67a1.33,1.33,0,0,0-1.32-1.33Z" fill="#666"/><path d="M190.38,168.07H153.24a3.33,3.33,0,0,1-3.32-3.33V127.67a3.33,3.33,0,0,1,3.32-3.33h37.14a3.33,3.33,0,0,1,3.33,3.33v37.07A3.33,3.33,0,0,1,190.38,168.07Zm-37.14-41.73a1.33,1.33,0,0,0-1.32,1.33v37.07a1.33,1.33,0,0,0,1.32,1.33h37.14a1.34,1.34,0,0,0,1.33-1.33V127.67a1.34,1.34,0,0,0-1.33-1.33Z" fill="#666"/><path d="M125.81,233H88.67a3.33,3.33,0,0,1-3.33-3.32V192.57a3.33,3.33,0,0,1,3.33-3.32h37.14a3.32,3.32,0,0,1,3.32,3.32v37.08A3.32,3.32,0,0,1,125.81,233ZM88.67,191.25a1.33,1.33,0,0,0-1.33,1.32v37.08A1.33,1.33,0,0,0,88.67,231h37.14a1.32,1.32,0,0,0,1.32-1.32V192.57a1.32,1.32,0,0,0-1.32-1.32Z" fill="#666"/><path d="M190.38,233H153.24a3.32,3.32,0,0,1-3.32-3.32V192.57a3.32,3.32,0,0,1,3.32-3.32h37.14a3.33,3.33,0,0,1,3.33,3.32v37.08A3.33,3.33,0,0,1,190.38,233Zm-37.14-41.72a1.32,1.32,0,0,0-1.32,1.32v37.08a1.32,1.32,0,0,0,1.32,1.32h37.14a1.33,1.33,0,0,0,1.33-1.32V192.57a1.33,1.33,0,0,0-1.33-1.32Z" fill="#666"/><path d="M125.81,103.16H88.67a3.33,3.33,0,0,1-3.33-3.32V62.76a3.33,3.33,0,0,1,3.33-3.32h37.14a3.32,3.32,0,0,1,3.32,3.32V99.84A3.32,3.32,0,0,1,125.81,103.16ZM88.67,61.44a1.33,1.33,0,0,0-1.33,1.32V99.84a1.33,1.33,0,0,0,1.33,1.32h37.14a1.32,1.32,0,0,0,1.32-1.32V62.76a1.32,1.32,0,0,0-1.32-1.32Z" fill="#666"/><path d="M255.38,168.07H218.24a3.33,3.33,0,0,1-3.32-3.33V127.67a3.33,3.33,0,0,1,3.32-3.33h37.14a3.33,3.33,0,0,1,3.32,3.33v37.07A3.33,3.33,0,0,1,255.38,168.07Zm-37.14-41.73a1.33,1.33,0,0,0-1.32,1.33v37.07a1.33,1.33,0,0,0,1.32,1.33h37.14a1.33,1.33,0,0,0,1.32-1.33V127.67a1.33,1.33,0,0,0-1.32-1.33Z" fill="#666"/><path d="M320.38,168.07H283.24a3.33,3.33,0,0,1-3.32-3.33V127.67a3.33,3.33,0,0,1,3.32-3.33h37.14a3.33,3.33,0,0,1,3.32,3.33v37.07A3.33,3.33,0,0,1,320.38,168.07Zm-37.14-41.73a1.33,1.33,0,0,0-1.32,1.33v37.07a1.33,1.33,0,0,0,1.32,1.33h37.14a1.33,1.33,0,0,0,1.32-1.33V127.67a1.33,1.33,0,0,0-1.32-1.33Z" fill="#666"/><path d="M385.38,168.07H348.24a3.33,3.33,0,0,1-3.32-3.33V127.67a3.33,3.33,0,0,1,3.32-3.33h37.14a3.33,3.33,0,0,1,3.32,3.33v37.07A3.33,3.33,0,0,1,385.38,168.07Zm-37.14-41.73a1.33,1.33,0,0,0-1.32,1.33v37.07a1.33,1.33,0,0,0,1.32,1.33h37.14a1.33,1.33,0,0,0,1.32-1.33V127.67a1.33,1.33,0,0,0-1.32-1.33Z" fill="#666"/><path d="M255.38,297.88H218.24a3.33,3.33,0,0,1-3.32-3.33V257.47a3.32,3.32,0,0,1,3.32-3.32h37.14a3.32,3.32,0,0,1,3.32,3.32v37.08A3.33,3.33,0,0,1,255.38,297.88Zm-37.14-41.73a1.32,1.32,0,0,0-1.32,1.32v37.08a1.33,1.33,0,0,0,1.32,1.33h37.14a1.33,1.33,0,0,0,1.32-1.33V257.47a1.32,1.32,0,0,0-1.32-1.32Z" fill="#666"/><path d="M320.38,297.88H283.24a3.33,3.33,0,0,1-3.32-3.33V257.47a3.32,3.32,0,0,1,3.32-3.32h37.14a3.32,3.32,0,0,1,3.32,3.32v37.08A3.33,3.33,0,0,1,320.38,297.88Zm-37.14-41.73a1.32,1.32,0,0,0-1.32,1.32v37.08a1.33,1.33,0,0,0,1.32,1.33h37.14a1.33,1.33,0,0,0,1.32-1.33V257.47a1.32,1.32,0,0,0-1.32-1.32Z" fill="#666"/><path d="M385.38,297.88H348.24a3.33,3.33,0,0,1-3.32-3.33V257.47a3.32,3.32,0,0,1,3.32-3.32h37.14a3.32,3.32,0,0,1,3.32,3.32v37.08A3.33,3.33,0,0,1,385.38,297.88Zm-37.14-41.73a1.32,1.32,0,0,0-1.32,1.32v37.08a1.33,1.33,0,0,0,1.32,1.33h37.14a1.33,1.33,0,0,0,1.32-1.33V257.47a1.32,1.32,0,0,0-1.32-1.32Z" fill="#666"/><path d="M320.5,103.16H283.36A3.33,3.33,0,0,1,280,99.84V62.76a3.33,3.33,0,0,1,3.33-3.32H320.5a3.32,3.32,0,0,1,3.32,3.32V99.84A3.32,3.32,0,0,1,320.5,103.16ZM283.36,61.44A1.33,1.33,0,0,0,282,62.76V99.84a1.33,1.33,0,0,0,1.33,1.32H320.5a1.32,1.32,0,0,0,1.32-1.32V62.76a1.32,1.32,0,0,0-1.32-1.32Z" fill="#666"/><line x1="109.88" y1="107.12" x2="109.88" y2="113.95" fill="none" stroke="#666" stroke-linecap="round" stroke-linejoin="round" stroke-width="3"/><polygon points="105.39 112.64 109.88 120.41 114.37 112.64 105.39 112.64" fill="#666"/><line x1="239.45" y1="187.02" x2="239.45" y2="234.19" fill="none" stroke="#666" stroke-linecap="round" stroke-linejoin="round" stroke-width="3"/><polygon points="234.97 232.87 239.45 240.64 243.94 232.87 234.97 232.87" fill="#666"/><line x1="369.45" y1="186.94" x2="369.45" y2="234.1" fill="none" stroke="#666" stroke-linecap="round" stroke-linejoin="round" stroke-width="3"/><polygon points="364.96 232.79 369.45 240.56 373.94 232.79 364.96 232.79" fill="#666"/><line x1="109.88" y1="172.02" x2="109.88" y2="178.86" fill="none" stroke="#666" stroke-linecap="round" stroke-linejoin="round" stroke-width="3"/><polygon points="105.39 177.55 109.88 185.32 114.37 177.55 105.39 177.55" fill="#666"/><line x1="304.45" y1="107.12" x2="304.45" y2="113.95" fill="none" stroke="#666" stroke-linecap="round" stroke-linejoin="round" stroke-width="3"/><polygon points="299.97 112.64 304.45 120.41 308.94 112.64 299.97 112.64" fill="#666"/><line x1="132.77" y1="148.84" x2="139.61" y2="148.84" fill="none" stroke="#666" stroke-linecap="round" stroke-linejoin="round" stroke-width="3"/><polygon points="138.29 153.33 146.07 148.84 138.29 144.35 138.29 153.33" fill="#666"/><line x1="197.35" y1="147.4" x2="204.18" y2="147.4" fill="none" stroke="#666" stroke-linecap="round" stroke-linejoin="round" stroke-width="3"/><polygon points="202.87 151.89 210.64 147.4 202.87 142.91 202.87 151.89" fill="#666"/><line x1="262.35" y1="147.4" x2="269.18" y2="147.4" fill="none" stroke="#666" stroke-linecap="round" stroke-linejoin="round" stroke-width="3"/><polygon points="267.87 151.89 275.64 147.4 267.87 142.91 267.87 151.89" fill="#666"/><line x1="327.46" y1="147.57" x2="334.3" y2="147.57" fill="none" stroke="#666" stroke-linecap="round" stroke-linejoin="round" stroke-width="3"/><polygon points="332.98 152.06 340.76 147.57 332.98 143.08 332.98 152.06" fill="#666"/><line x1="132.77" y1="213.75" x2="139.61" y2="213.75" fill="none" stroke="#666" stroke-linecap="round" stroke-linejoin="round" stroke-width="3"/><polygon points="138.29 218.23 146.07 213.75 138.29 209.26 138.29 218.23" fill="#666"/><line x1="174.46" y1="185.26" x2="174.46" y2="178.42" fill="none" stroke="#666" stroke-linecap="round" stroke-linejoin="round" stroke-width="3"/><polygon points="178.94 179.73 174.46 171.96 169.97 179.73 178.94 179.73" fill="#666"/><line x1="262.35" y1="279.3" x2="269.18" y2="279.3" fill="none" stroke="#666" stroke-linecap="round" stroke-linejoin="round" stroke-width="3"/><polygon points="267.87 283.79 275.64 279.3 267.87 274.81 267.87 283.79" fill="#666"/><line x1="327.46" y1="279.47" x2="334.3" y2="279.47" fill="none" stroke="#666" stroke-linecap="round" stroke-linejoin="round" stroke-width="3"/><polygon points="332.98 283.96 340.76 279.47 332.98 274.98 332.98 283.96" fill="#666"/><path d="M50.49,273.59l-16.75-9.68h0L13.19,275.78h0L8.65,278.4h0l25.07,14.5h0l4.45-2.67L30,285.47Zm-16.76-4.44,7.68,4.44-16,9.26-7.68-4.45Z" fill="#666"/><path d="M49.4,198.8H9.84a1.11,1.11,0,0,0-1.11,1.11v7.29a1.11,1.11,0,0,0,1.11,1.11H49.4a1.11,1.11,0,0,0,1.11-1.11v-7.29A1.11,1.11,0,0,0,49.4,198.8Zm-35,7.37A2.62,2.62,0,1,1,17,203.56,2.61,2.61,0,0,1,14.37,206.17Zm8.14,0a2.62,2.62,0,1,1,2.61-2.61A2.61,2.61,0,0,1,22.51,206.17Z" fill="#666"/><path d="M49.35,210.31H9.79a1.11,1.11,0,0,0-1.11,1.11v7.29a1.11,1.11,0,0,0,1.11,1.11H49.35a1.11,1.11,0,0,0,1.11-1.11v-7.29A1.11,1.11,0,0,0,49.35,210.31Zm-35,7.37a2.62,2.62,0,1,1,2.61-2.61A2.61,2.61,0,0,1,14.32,217.68Zm8.14,0a2.62,2.62,0,1,1,2.61-2.61A2.61,2.61,0,0,1,22.46,217.68Z" fill="#666"/><path d="M49.4,221.82H9.84a1.11,1.11,0,0,0-1.11,1.11v7.29a1.11,1.11,0,0,0,1.11,1.11H49.4a1.11,1.11,0,0,0,1.11-1.11v-7.29A1.11,1.11,0,0,0,49.4,221.82Zm-35,7.37A2.62,2.62,0,1,1,17,226.58,2.61,2.61,0,0,1,14.37,229.19Zm8.14,0a2.62,2.62,0,1,1,2.61-2.61A2.61,2.61,0,0,1,22.51,229.19Z" fill="#666"/><path d="M55.23,156.08H50.64V132.53a1.83,1.83,0,0,0-1.82-1.82H10.42a1.83,1.83,0,0,0-1.82,1.82v23.55H4a.35.35,0,0,0-.35.35v.4a4.25,4.25,0,0,0,4.24,4.25H51.34a4.25,4.25,0,0,0,4.24-4.25v-.4A.35.35,0,0,0,55.23,156.08Zm-7.48-2.26H11.49V133.61H47.75Z" fill="#666"/><path d="M41.56,83.11H37a15.15,15.15,0,0,1-14.8,0H17.68a9,9,0,0,0-8.95,9v5.72H50.51V92.07A9,9,0,0,0,41.56,83.11Z" fill="#666"/><circle cx="29.62" cy="69.76" r="11.27" fill="#666"/></svg>