<svg xmlns="http://www.w3.org/2000/svg" viewBox="0 0 396 360"><rect x="56.78" y="13.78" width="125.31" height="86.97" rx="5.81" fill="#e5e5e5"/><rect x="48.89" y="5.89" width="125.31" height="86.97" rx="5.81" fill="none" stroke="#231f20" stroke-linecap="round" stroke-linejoin="round" stroke-width="4"/><rect x="55.89" y="140.73" width="125.31" height="86.97" rx="5.81" fill="#e5e5e5"/><rect x="48.89" y="132.84" width="125.31" height="86.97" rx="5.81" fill="none" stroke="#231f20" stroke-linecap="round" stroke-linejoin="round" stroke-width="4"/><rect x="221.8" y="140.73" width="125.31" height="86.97" rx="5.81" fill="#daa520"/><rect x="221.52" y="267.13" width="125.31" height="86.97" rx="5.81" fill="#e5e5e5"/><rect x="213.63" y="132.84" width="125.31" height="86.97" rx="5.81" fill="none" stroke="#231f20" stroke-linecap="round" stroke-linejoin="round" stroke-width="4"/><rect x="213.63" y="259.25" width="125.31" height="86.97" rx="5.81" fill="none" stroke="#231f20" stroke-linecap="round" stroke-linejoin="round" stroke-width="4"/><path d="M268.81,173.15h14.94a0,0,0,0,1,0,0V185.4a2.69,2.69,0,0,1-2.69,2.69h-9.56a2.69,2.69,0,0,1-2.69-2.69V173.15A0,0,0,0,1,268.81,173.15Z" fill="none" stroke="#fff" stroke-linecap="round" stroke-linejoin="round" stroke-width="2"/><path d="M272,173.15v-4.29a4.3,4.3,0,0,1,4.29-4.3h0a4.3,4.3,0,0,1,4.3,4.3v4.29" fill="none" stroke="#fff" stroke-linecap="round" stroke-linejoin="round" stroke-width="2"/><circle cx="276.28" cy="178.82" r="2.18" fill="#fff"/><line x1="276.28" y1="179.01" x2="276.28" y2="183.49" fill="none" stroke="#fff" stroke-linecap="round" stroke-miterlimit="10" stroke-width="2"/><line x1="111.55" y1="98.77" x2="111.55" y2="118.33" fill="none" stroke="#231f20" stroke-linecap="round" stroke-linejoin="round" stroke-width="3"/><polygon points="105.56 116.58 111.55 126.94 117.53 116.58 105.56 116.58" fill="#231f20"/><line x1="179.83" y1="176.33" x2="199.39" y2="176.33" fill="none" stroke="#231f20" stroke-linecap="round" stroke-linejoin="round" stroke-width="3"/><polygon points="197.63 182.31 208 176.33 197.63 170.35 197.63 182.31" fill="#231f20"/><line x1="278.46" y1="225.45" x2="278.46" y2="245" fill="none" stroke="#231f20" stroke-linecap="round" stroke-linejoin="round" stroke-width="3"/><polygon points="272.48 243.25 278.46 253.61 284.45 243.25 272.48 243.25" fill="#231f20"/></svg>