<svg xmlns="http://www.w3.org/2000/svg" viewBox="0 0 396 360" width="396" height="360"><path d="M299.19,102.93a2.2,2.2,0,1,0,2.12-2.25A2.16,2.16,0,0,0,299.19,102.93Z" fill="#daa520"/><path d="M301.44,262.73a2.2,2.2,0,1,0-2.25-2.12A2.15,2.15,0,0,0,301.44,262.73Z" fill="#daa520"/><path d="M299.19,265.91a2.2,2.2,0,1,0,2.07-2.3A2.16,2.16,0,0,0,299.19,265.91Z" fill="#daa520"/><path d="M299.19,97.6a2.2,2.2,0,1,0,2.17-2.2A2.15,2.15,0,0,0,299.19,97.6Z" fill="#daa520"/><path d="M294,119.19a2.16,2.16,0,1,0,2.11-2.15A2.18,2.18,0,0,0,294,119.19Z" fill="#daa520"/><path d="M296.21,105a2.16,2.16,0,1,0-2.25-2A2.17,2.17,0,0,0,296.21,105Z" fill="#daa520"/><path d="M298.27,260.57a2.16,2.16,0,1,0-2.13,2.12A2.17,2.17,0,0,0,298.27,260.57Z" fill="#daa520"/><path d="M296.07,252.85a2.16,2.16,0,1,0,2.2,2.06A2.18,2.18,0,0,0,296.07,252.85Z" fill="#daa520"/><path d="M296.16,106.24a2.16,2.16,0,1,0,2.11,2.15A2.17,2.17,0,0,0,296.16,106.24Z" fill="#daa520"/><path d="M296.15,247.33a2.16,2.16,0,1,0-.07,4.32,2.16,2.16,0,0,0,.07-4.32Z" fill="#daa520"/><path d="M294,113.91a2.16,2.16,0,1,0,2.11-2.15A2.18,2.18,0,0,0,294,113.91Z" fill="#daa520"/><path d="M298.27,124.75a2.16,2.16,0,1,0-2.13,2.12A2.16,2.16,0,0,0,298.27,124.75Z" fill="#daa520"/><path d="M296.07,236.54a2.16,2.16,0,1,0,2.2,2.05A2.17,2.17,0,0,0,296.07,236.54Z" fill="#daa520"/><path d="M296.14,99.76A2.16,2.16,0,1,0,294,97.69,2.17,2.17,0,0,0,296.14,99.76Z" fill="#daa520"/><path d="M294,265.76a2.16,2.16,0,1,0,4.32.1,2.16,2.16,0,0,0-4.32-.1Z" fill="#daa520"/><path d="M296.12,246.37a2.16,2.16,0,0,0,0-4.32,2.16,2.16,0,1,0,0,4.32Z" fill="#daa520"/><path d="M296.12,231a2.16,2.16,0,1,0,0,4.31c1,0,1.88-.74,1.88-1.49C298,232,297.36,231,296.12,231Z" fill="#daa520"/><path d="M288.48,141a2.12,2.12,0,1,0,2.18-2.08A2.19,2.19,0,0,0,288.48,141Z" fill="#daa520"/><path d="M288.48,119.19a2.12,2.12,0,1,0,4.23,0,2.12,2.12,0,0,0-4.23,0Z" fill="#daa520"/><path d="M288.48,244.27a2.11,2.11,0,1,0,2.09-2.17A2.19,2.19,0,0,0,288.48,244.27Z" fill="#daa520"/><path d="M290.6,236.58a2.12,2.12,0,1,0,2.11,2.15A2.18,2.18,0,0,0,290.6,236.58Z" fill="#daa520"/><path d="M290.63,267.92a2.11,2.11,0,1,0-2.15-2.11A2.18,2.18,0,0,0,290.63,267.92Z" fill="#daa520"/><path d="M290.53,99.71a2.11,2.11,0,1,0-2-2.2A2.18,2.18,0,0,0,290.53,99.71Z" fill="#daa520"/><path d="M290.61,116a2.12,2.12,0,1,0-2.13-2.13A2.19,2.19,0,0,0,290.61,116Z" fill="#daa520"/><path d="M288.48,124.73a2.12,2.12,0,1,0,2.13-2.13A2.19,2.19,0,0,0,288.48,124.73Z" fill="#daa520"/><path d="M288.48,233.19a2.12,2.12,0,1,0,4.23-.09,2.12,2.12,0,0,0-4.23.09Z" fill="#daa520"/><path d="M288.48,249.44a2.12,2.12,0,1,0,2.19-2.06A2.19,2.19,0,0,0,288.48,249.44Z" fill="#daa520"/><path d="M288.48,108.38a2.12,2.12,0,1,0,2.16-2.1A2.18,2.18,0,0,0,288.48,108.38Z" fill="#daa520"/><path d="M290.6,132.35a2.12,2.12,0,1,0-2.12-2.14A2.19,2.19,0,0,0,290.6,132.35Z" fill="#daa520"/><path d="M290.57,257.13a2.12,2.12,0,1,0-2.09-2.17A2.19,2.19,0,0,0,290.57,257.13Z" fill="#daa520"/><path d="M290.65,100.77a2.11,2.11,0,1,0,2.06,2.19A2.18,2.18,0,0,0,290.65,100.77Z" fill="#daa520"/><path d="M290.62,258.42a2.11,2.11,0,1,0,2.09,2.16A2.17,2.17,0,0,0,290.62,258.42Z" fill="#daa520"/><path d="M290.59,225.78a2.12,2.12,0,1,0,2.12,2.14A2.19,2.19,0,0,0,290.59,225.78Z" fill="#daa520"/><path d="M290.54,224.49a2.12,2.12,0,1,0-2.06-2.19A2.19,2.19,0,0,0,290.54,224.49Z" fill="#daa520"/><path d="M290.68,137.63a2.18,2.18,0,0,0,2-2.24,2.11,2.11,0,0,0-4.22.18A2.19,2.19,0,0,0,290.68,137.63Z" fill="#daa520"/><path d="M294,130.06a2.21,2.21,0,0,0,1.76,2.29c.79.11,1.6.15,1.69-1a3.11,3.11,0,0,1,.17-.89c.27-.69.52-1.37-.2-1.91a2,2,0,0,0-2.13-.23A2.11,2.11,0,0,0,294,130.06Z" fill="#daa520"/><path d="M288.48,217.09a2.19,2.19,0,0,0,2.15,2.12,2,2,0,0,0,1.92-1.61c0-.89-1.27-2.59-1.91-2.61A2.18,2.18,0,0,0,288.48,217.09Z" fill="#daa520"/><path d="M285.31,231.16a2,2,0,1,0,2,2A2,2,0,0,0,285.31,231.16Z" fill="#daa520"/><path d="M285.13,99.62a2,2,0,1,0-2.08-2A2,2,0,0,0,285.13,99.62Z" fill="#daa520"/><path d="M285.41,229.92a2,2,0,0,0,1.92-2.15,2,2,0,0,0-4,.2A2,2,0,0,0,285.41,229.92Z" fill="#daa520"/><path d="M285,122.69a2,2,0,1,0,2.06,2A2,2,0,0,0,285,122.69Z" fill="#daa520"/><path d="M283.05,130.24a2,2,0,1,0,2.05-2A2,2,0,0,0,283.05,130.24Z" fill="#daa520"/><path d="M285.37,262.55a2,2,0,1,0-2.08-2A2,2,0,0,0,285.37,262.55Z" fill="#daa520"/><path d="M285,100.86a2,2,0,1,0,2.06,2A2,2,0,0,0,285,100.86Z" fill="#daa520"/><path d="M285.31,263.79a2,2,0,1,0,2,2A2,2,0,0,0,285.31,263.79Z" fill="#daa520"/><path d="M285.37,224.4a2,2,0,1,0-2.08-2A2,2,0,0,0,285.37,224.4Z" fill="#daa520"/><path d="M285.07,133.49a2,2,0,1,0,.07,4,2,2,0,0,0-.07-4Z" fill="#daa520"/><path d="M283.05,119.25a2,2,0,1,0,2-2.07A2,2,0,0,0,283.05,119.25Z" fill="#daa520"/><path d="M285.35,236.67a2,2,0,1,0,2,2.09A2,2,0,0,0,285.35,236.67Z" fill="#daa520"/><path d="M285.33,219.12a2,2,0,1,0-2-2A2,2,0,0,0,285.33,219.12Z" fill="#daa520"/><path d="M283.05,141a2,2,0,1,0,2.08-2A2,2,0,0,0,283.05,141Z" fill="#daa520"/><path d="M283.29,255a2,2,0,0,0,2.06,2,2,2,0,0,0,0-4A2,2,0,0,0,283.29,255Z" fill="#daa520"/><path d="M283.05,113.93a2,2,0,1,0,4-.08,2,2,0,0,0-4,.08Z" fill="#daa520"/><path d="M285.35,242.19a2,2,0,0,0-.13,4,2,2,0,1,0,.13-4Z" fill="#daa520"/><path d="M285.05,153.85a2,2,0,1,0-2-2.07A2,2,0,0,0,285.05,153.85Z" fill="#daa520"/><path d="M285.27,209.56a2,2,0,1,0,2.06,2A2,2,0,0,0,285.27,209.56Z" fill="#daa520"/><path d="M283.05,146.33a2,2,0,1,0,2-2A2,2,0,0,0,283.05,146.33Z" fill="#daa520"/><path d="M283.05,108.46a2,2,0,1,0,4-.18,2,2,0,0,0-4,.18Z" fill="#daa520"/><path d="M283.29,249.5a2,2,0,1,0,2-2A2,2,0,0,0,283.29,249.5Z" fill="#daa520"/><path d="M279.77,251.44a2,2,0,1,0-1.92-2A1.9,1.9,0,0,0,279.77,251.44Z" fill="#daa520"/><path d="M279.77,208a2,2,0,1,0-1.92-2A1.9,1.9,0,0,0,279.77,208Z" fill="#daa520"/><path d="M279.79,226a2,2,0,1,0,1.95,1.94A1.89,1.89,0,0,0,279.79,226Z" fill="#daa520"/><path d="M279.85,126.66a1.95,1.95,0,1,0-2-1.89A1.9,1.9,0,0,0,279.85,126.66Z" fill="#daa520"/><path d="M277.85,108.41a1.95,1.95,0,1,0,1.94-2A1.9,1.9,0,0,0,277.85,108.41Z" fill="#daa520"/><path d="M277.85,265.85a1.95,1.95,0,1,0,1.91-2A1.9,1.9,0,0,0,277.85,265.85Z" fill="#daa520"/><path d="M279.8,231.23a1.95,1.95,0,1,0,1.94,2A1.89,1.89,0,0,0,279.8,231.23Z" fill="#daa520"/><path d="M277.85,146.33a1.95,1.95,0,1,0,1.92-2A1.9,1.9,0,0,0,277.85,146.33Z" fill="#daa520"/><path d="M277.85,222.37a1.95,1.95,0,1,0,1.95-1.94A1.9,1.9,0,0,0,277.85,222.37Z" fill="#daa520"/><path d="M277.85,102.87a1.95,1.95,0,1,0,3.89,0,1.95,1.95,0,1,0-3.89,0Z" fill="#daa520"/><path d="M279.83,155.4a2,2,0,1,0,1.91,2A1.9,1.9,0,0,0,279.83,155.4Z" fill="#daa520"/><path d="M279.85,137.46a1.95,1.95,0,1,0-2-1.89A1.9,1.9,0,0,0,279.85,137.46Z" fill="#daa520"/><path d="M281.74,211.56a1.95,1.95,0,1,0-1.92,2A1.9,1.9,0,0,0,281.74,211.56Z" fill="#daa520"/><path d="M277.85,119.25a1.95,1.95,0,1,0,1.89-2A1.9,1.9,0,0,0,277.85,119.25Z" fill="#daa520"/><path d="M277.85,151.79a1.95,1.95,0,1,0,2-1.91A1.9,1.9,0,0,0,277.85,151.79Z" fill="#daa520"/><path d="M279.82,242.27a1.95,1.95,0,1,0,1.92,2A1.89,1.89,0,0,0,279.82,242.27Z" fill="#daa520"/><path d="M277.85,238.75a1.95,1.95,0,1,0,1.89-2A1.9,1.9,0,0,0,277.85,238.75Z" fill="#daa520"/><path d="M277.85,97.58a1.95,1.95,0,1,0,2-1.93A1.9,1.9,0,0,0,277.85,97.58Z" fill="#daa520"/><path d="M277.85,130.23a1.95,1.95,0,1,0,1.95-1.94A1.9,1.9,0,0,0,277.85,130.23Z" fill="#daa520"/><path d="M277.85,260.55a1.95,1.95,0,1,0,1.92-2A1.9,1.9,0,0,0,277.85,260.55Z" fill="#daa520"/><path d="M277.85,114a1.95,1.95,0,1,0,1.89-2A1.91,1.91,0,0,0,277.85,114Z" fill="#daa520"/><path d="M277.85,217.14a1.95,1.95,0,1,0,1.91-2A1.91,1.91,0,0,0,277.85,217.14Z" fill="#daa520"/><path d="M279.79,257a2,2,0,1,0-1.94-1.95A1.9,1.9,0,0,0,279.79,257Z" fill="#daa520"/><path d="M277.85,141a1.95,1.95,0,1,0,1.94-2A1.9,1.9,0,0,0,277.85,141Z" fill="#daa520"/><path d="M307.9,98.13a10.6,10.6,0,0,0-.15-1.76c-.4-1.1-.87-1.32-1.92-.76a2.28,2.28,0,0,0-.72,3.38,2,2,0,0,0,2.33.78C308.41,99.46,307.52,98.56,307.9,98.13Z" fill="#daa520"/><path d="M288.48,146.42a2.16,2.16,0,0,0,1,1.64c.78.47,1.47.59,1.86-.49.15-.43.41-.82.58-1.25s.7-.87.27-1.38a2,2,0,0,0-1.82-.72A2.19,2.19,0,0,0,288.48,146.42Z" fill="#daa520"/><path d="M272.37,102.85a1.91,1.91,0,1,0,1.94-1.87A1.95,1.95,0,0,0,272.37,102.85Z" fill="#daa520"/><path d="M272.37,255.05a1.91,1.91,0,1,0,1.87-1.94A2,2,0,0,0,272.37,255.05Z" fill="#daa520"/><path d="M272.37,113.91a1.91,1.91,0,1,0,1.92-1.9A2,2,0,0,0,272.37,113.91Z" fill="#daa520"/><path d="M274.24,236.79a1.91,1.91,0,1,0,1.94,1.87A1.95,1.95,0,0,0,274.24,236.79Z" fill="#daa520"/><path d="M274.27,258.63a1.9,1.9,0,1,0,0,3.8,1.9,1.9,0,0,0,0-3.8Z" fill="#daa520"/><path d="M274.3,242.31a1.91,1.91,0,1,0,1.88,1.92A2,2,0,0,0,274.3,242.31Z" fill="#daa520"/><path d="M272.37,217.13a1.91,1.91,0,1,0,1.88-1.93A1.95,1.95,0,0,0,272.37,217.13Z" fill="#daa520"/><path d="M272.37,135.47a1.91,1.91,0,1,0,3.81.09,1.91,1.91,0,1,0-3.81-.09Z" fill="#daa520"/><path d="M274.27,149.93a1.9,1.9,0,1,0,1.91,1.89A1.95,1.95,0,0,0,274.27,149.93Z" fill="#daa520"/><path d="M272.37,211.61a1.91,1.91,0,1,0,1.87-1.93A1.94,1.94,0,0,0,272.37,211.61Z" fill="#daa520"/><path d="M274.33,117.29a1.91,1.91,0,1,0,1.85,1.95A2,2,0,0,0,274.33,117.29Z" fill="#daa520"/><path d="M274.29,95.7a1.9,1.9,0,1,0,1.89,1.91A1.95,1.95,0,0,0,274.29,95.7Z" fill="#daa520"/><path d="M274.25,139.13a1.91,1.91,0,1,0,1.93,1.88A2,2,0,0,0,274.25,139.13Z" fill="#daa520"/><path d="M274.25,198.88a1.91,1.91,0,1,0,1.93,1.87A1.95,1.95,0,0,0,274.25,198.88Z" fill="#daa520"/><path d="M272.37,222.37a1.91,1.91,0,1,0,1.91-1.9A1.95,1.95,0,0,0,272.37,222.37Z" fill="#daa520"/><path d="M272.37,130.25a1.91,1.91,0,1,0,1.9-1.92A2,2,0,0,0,272.37,130.25Z" fill="#daa520"/><path d="M274.26,231.27a1.91,1.91,0,1,0,1.92,1.89A2,2,0,0,0,274.26,231.27Z" fill="#daa520"/><path d="M274.23,144.41a1.9,1.9,0,1,0,.1,3.8,1.9,1.9,0,0,0-.1-3.8Z" fill="#daa520"/><path d="M274.24,106.49a1.91,1.91,0,1,0,1.94,1.87A2,2,0,0,0,274.24,106.49Z" fill="#daa520"/><path d="M274.32,267.71a1.9,1.9,0,1,0-1.95-1.86A1.94,1.94,0,0,0,274.32,267.71Z" fill="#daa520"/><path d="M274.27,159.25a1.9,1.9,0,1,0-1.9-1.91A1.95,1.95,0,0,0,274.27,159.25Z" fill="#daa520"/><path d="M272.37,249.5a1.91,1.91,0,1,0,1.9-1.91A2,2,0,0,0,272.37,249.5Z" fill="#daa520"/><path d="M274.3,126.62a1.91,1.91,0,1,0-1.93-1.88A1.95,1.95,0,0,0,274.3,126.62Z" fill="#daa520"/><path d="M272.37,162.62a1.91,1.91,0,0,0,3.81,0,1.91,1.91,0,0,0-3.81,0Z" fill="#daa520"/><path d="M274.24,208a1.9,1.9,0,1,0-1.87-1.93A1.94,1.94,0,0,0,274.24,208Z" fill="#daa520"/><path d="M274.22,229.8a1.91,1.91,0,1,0,.11-3.81,1.91,1.91,0,1,0-.11,3.81Z" fill="#daa520"/><path d="M307.88,264.67c.19-1-.4-1.17-1.18-1.1a2.21,2.21,0,0,0-2,2.69,1.9,1.9,0,0,0,1.48,1.67c.86.15.94-.74,1.22-1.29A5.51,5.51,0,0,0,307.88,264.67Z" fill="#daa520"/><path d="M300.88,91.36a1.92,1.92,0,0,0-.24,0c-.46.12-1.15-.32-1.38.28a1.84,1.84,0,0,0,.54,2,2.12,2.12,0,0,0,2.63.4,1.8,1.8,0,0,0,1.11-2c-.17-.66-1-.5-1.58-.6A6.48,6.48,0,0,0,300.88,91.36Z" fill="#daa520"/><path d="M307.87,262a7,7,0,0,0-1-3.26c-.21-.42-.55-.48-1-.27a2.35,2.35,0,0,0-1.14,2.75,2.32,2.32,0,0,0,2.54,1.53C308,262.66,307.89,262.25,307.87,262Z" fill="#daa520"/><path d="M296.07,91.36h-1c-1.21,0-1.47.39-1,1.51a2.15,2.15,0,0,0,4.07-.2c.22-.75.24-1.47-.93-1.32A9.45,9.45,0,0,1,296.07,91.36Z" fill="#daa520"/><path d="M277.85,200.84a1.92,1.92,0,0,0,2,1.89c.85,0,1.84-.84,1.81-1.46a5.9,5.9,0,0,0-2.28-2.41A2,2,0,0,0,277.85,200.84Z" fill="#daa520"/><path d="M267.16,265.78A1.84,1.84,0,1,0,269,264,1.9,1.9,0,0,0,267.16,265.78Z" fill="#daa520"/><path d="M267.16,162.66a1.84,1.84,0,1,0,1.81-1.87A1.89,1.89,0,0,0,267.16,162.66Z" fill="#daa520"/><path d="M267.16,168.12a1.84,1.84,0,1,0,1.87-1.81A1.89,1.89,0,0,0,267.16,168.12Z" fill="#daa520"/><path d="M267.16,157.38a1.84,1.84,0,1,0,1.81-1.87A1.89,1.89,0,0,0,267.16,157.38Z" fill="#daa520"/><path d="M269,229.73a1.84,1.84,0,1,0-1.81-1.86A1.88,1.88,0,0,0,269,229.73Z" fill="#daa520"/><path d="M269,101a1.84,1.84,0,1,0,.06,3.67A1.84,1.84,0,0,0,269,101Z" fill="#daa520"/><path d="M267.16,124.68a1.84,1.84,0,1,0,1.87-1.8A1.89,1.89,0,0,0,267.16,124.68Z" fill="#daa520"/><path d="M267.16,195.23a1.84,1.84,0,1,0,1.87-1.8A1.9,1.9,0,0,0,267.16,195.23Z" fill="#daa520"/><path d="M269,150a1.84,1.84,0,1,0,1.86,1.8A1.89,1.89,0,0,0,269,150Z" fill="#daa520"/><path d="M267.16,249.52a1.84,1.84,0,1,0,1.81-1.86A1.89,1.89,0,0,0,267.16,249.52Z" fill="#daa520"/><path d="M269,253.18a1.84,1.84,0,1,0,1.86,1.8A1.87,1.87,0,0,0,269,253.18Z" fill="#daa520"/><path d="M269,235a1.84,1.84,0,1,0-1.87-1.81A1.88,1.88,0,0,0,269,235Z" fill="#daa520"/><path d="M267.16,130.21A1.84,1.84,0,1,0,269,128.4,1.89,1.89,0,0,0,267.16,130.21Z" fill="#daa520"/><path d="M269,199a1.84,1.84,0,1,0,1.86,1.8A1.89,1.89,0,0,0,269,199Z" fill="#daa520"/><path d="M269,144.48a1.84,1.84,0,1,0,1.86,1.8A1.89,1.89,0,0,0,269,144.48Z" fill="#daa520"/><path d="M269,106.56a1.84,1.84,0,1,0,.06,3.67,1.84,1.84,0,0,0-.06-3.67Z" fill="#daa520"/><path d="M269,99.44a1.84,1.84,0,1,0-1.87-1.81A1.89,1.89,0,0,0,269,99.44Z" fill="#daa520"/><path d="M269,207.9a1.84,1.84,0,1,0-1.87-1.81A1.89,1.89,0,0,0,269,207.9Z" fill="#daa520"/><path d="M269,242.38a1.84,1.84,0,1,0,1.86,1.8A1.89,1.89,0,0,0,269,242.38Z" fill="#daa520"/><path d="M269,220.54a1.84,1.84,0,1,0,.06,3.67,1.84,1.84,0,0,0-.06-3.67Z" fill="#daa520"/><path d="M267.16,211.55a1.84,1.84,0,1,0,1.87-1.81A1.9,1.9,0,0,0,267.16,211.55Z" fill="#daa520"/><path d="M267.16,141a1.84,1.84,0,1,0,3.67.06,1.84,1.84,0,0,0-3.67-.06Z" fill="#daa520"/><path d="M267.16,114a1.84,1.84,0,1,0,1.81-1.87A1.89,1.89,0,0,0,267.16,114Z" fill="#daa520"/><path d="M267.16,260.56a1.84,1.84,0,1,0,3.67-.06,1.84,1.84,0,0,0-3.67.06Z" fill="#daa520"/><path d="M269,240.53a1.84,1.84,0,1,0-1.81-1.87A1.88,1.88,0,0,0,269,240.53Z" fill="#daa520"/><path d="M267.16,119.22a1.84,1.84,0,1,0,1.81-1.86A1.89,1.89,0,0,0,267.16,119.22Z" fill="#daa520"/><path d="M267.16,217.13a1.84,1.84,0,1,0,1.81-1.87A1.89,1.89,0,0,0,267.16,217.13Z" fill="#daa520"/><path d="M267.16,135.48a1.84,1.84,0,1,0,1.87-1.8A1.9,1.9,0,0,0,267.16,135.48Z" fill="#daa520"/><path d="M274.26,197.18A2,2,0,0,0,276,196c.36-.76-.34-.94-.63-1.35a2.06,2.06,0,0,0-.33-.33c-.5-.43-.84-1.27-1.74-.65a1.83,1.83,0,0,0-.89,2.13A1.91,1.91,0,0,0,274.26,197.18Z" fill="#daa520"/><path d="M290.68,94.19A2.13,2.13,0,0,0,292.46,93c.6-1.13.27-1.68-1-1.68h-1.8c-1.2,0-1.46.4-1,1.51A2.16,2.16,0,0,0,290.68,94.19Z" fill="#daa520"/><path d="M261.75,135.54a1.73,1.73,0,1,0,1.7-1.75A1.68,1.68,0,0,0,261.75,135.54Z" fill="#daa520"/><path d="M263.49,202.51a1.73,1.73,0,1,0-1.74-1.72A1.68,1.68,0,0,0,263.49,202.51Z" fill="#daa520"/><path d="M261.75,162.57a1.73,1.73,0,1,0,1.78-1.67A1.69,1.69,0,0,0,261.75,162.57Z" fill="#daa520"/><path d="M263.44,218.83a1.73,1.73,0,1,0-1.69-1.77A1.68,1.68,0,0,0,263.44,218.83Z" fill="#daa520"/><path d="M261.75,265.8a1.73,1.73,0,1,0,1.74-1.72A1.68,1.68,0,0,0,261.75,265.8Z" fill="#daa520"/><path d="M265.21,260.43a1.73,1.73,0,1,0-1.63,1.83A1.7,1.7,0,0,0,265.21,260.43Z" fill="#daa520"/><path d="M265.21,119.17a1.73,1.73,0,1,0-1.71,1.75A1.67,1.67,0,0,0,265.21,119.17Z" fill="#daa520"/><path d="M263.44,240.42a1.73,1.73,0,1,0-1.69-1.76A1.68,1.68,0,0,0,263.44,240.42Z" fill="#daa520"/><path d="M261.75,168.11a1.73,1.73,0,1,0,1.77-1.69A1.68,1.68,0,0,0,261.75,168.11Z" fill="#daa520"/><path d="M261.75,173.71a1.73,1.73,0,1,0,1.69-1.77A1.67,1.67,0,0,0,261.75,173.71Z" fill="#daa520"/><path d="M261.76,178.91a1.72,1.72,0,1,0,1.76-1.69A1.67,1.67,0,0,0,261.76,178.91Z" fill="#daa520"/><path d="M261.75,157.36a1.73,1.73,0,1,0,1.72-1.74A1.68,1.68,0,0,0,261.75,157.36Z" fill="#daa520"/><path d="M261.75,114a1.73,1.73,0,1,0,1.68-1.77A1.68,1.68,0,0,0,261.75,114Z" fill="#daa520"/><path d="M263.38,226.17a1.73,1.73,0,1,0,1.83,1.63A1.69,1.69,0,0,0,263.38,226.17Z" fill="#daa520"/><path d="M261.76,184.47a1.72,1.72,0,1,0,1.71-1.73A1.67,1.67,0,0,0,261.76,184.47Z" fill="#daa520"/><path d="M261.75,211.53a1.73,1.73,0,1,0,1.78-1.68A1.68,1.68,0,0,0,261.75,211.53Z" fill="#daa520"/><path d="M263.48,142.76a1.73,1.73,0,1,0-1.73-1.72A1.68,1.68,0,0,0,263.48,142.76Z" fill="#daa520"/><path d="M261.75,189.77a1.73,1.73,0,1,0,1.7-1.75A1.68,1.68,0,0,0,261.75,189.77Z" fill="#daa520"/><path d="M263.38,231.69a1.73,1.73,0,1,0,1.83,1.63A1.69,1.69,0,0,0,263.38,231.69Z" fill="#daa520"/><path d="M263.44,224.11a1.73,1.73,0,1,0-1.69-1.77A1.69,1.69,0,0,0,263.44,224.11Z" fill="#daa520"/><path d="M263.45,242.49a1.73,1.73,0,1,0,1.76,1.69A1.67,1.67,0,0,0,263.45,242.49Z" fill="#daa520"/><path d="M263.47,123a1.73,1.73,0,1,0,1.74,1.72A1.68,1.68,0,0,0,263.47,123Z" fill="#daa520"/><path d="M261.75,195.22a1.73,1.73,0,1,0,1.77-1.68A1.68,1.68,0,0,0,261.75,195.22Z" fill="#daa520"/><path d="M263.48,207.79a1.73,1.73,0,1,0-1.73-1.73A1.68,1.68,0,0,0,263.48,207.79Z" fill="#daa520"/><path d="M263.48,153.56a1.73,1.73,0,1,0-1.73-1.73A1.68,1.68,0,0,0,263.48,153.56Z" fill="#daa520"/><path d="M261.75,97.64a1.73,1.73,0,1,0,1.69-1.77A1.68,1.68,0,0,0,261.75,97.64Z" fill="#daa520"/><path d="M263.51,101.15a1.73,1.73,0,1,0,1.7,1.76A1.68,1.68,0,0,0,263.51,101.15Z" fill="#daa520"/><path d="M263.53,110.13a1.73,1.73,0,1,0-1.78-1.68A1.69,1.69,0,0,0,263.53,110.13Z" fill="#daa520"/><path d="M263.48,251.22a1.73,1.73,0,1,0-1.73-1.72A1.68,1.68,0,0,0,263.48,251.22Z" fill="#daa520"/><path d="M261.75,255.05a1.73,1.73,0,1,0,1.69-1.77A1.68,1.68,0,0,0,261.75,255.05Z" fill="#daa520"/><path d="M263.51,144.58a1.73,1.73,0,1,0,1.7,1.76A1.68,1.68,0,0,0,263.51,144.58Z" fill="#daa520"/><path d="M261.75,130.19a1.73,1.73,0,1,0,1.78-1.68A1.67,1.67,0,0,0,261.75,130.19Z" fill="#daa520"/><path d="M294,227.88a2.11,2.11,0,0,0,1.08,1.87,1.66,1.66,0,0,0,1.81.13c.56-.39,0-.92-.09-1.36a8.29,8.29,0,0,0-.46-1.65c-.12-.36,0-1-.56-1.06a1.54,1.54,0,0,0-1.22.66A2.16,2.16,0,0,0,294,227.88Z" fill="#daa520"/><path d="M256.29,97.59A1.67,1.67,0,1,0,258,95.93,1.69,1.69,0,0,0,256.29,97.59Z" fill="#daa520"/><path d="M256.29,200.77a1.67,1.67,0,1,0,1.68-1.66A1.69,1.69,0,0,0,256.29,200.77Z" fill="#daa520"/><path d="M258,137.19a1.68,1.68,0,1,0-1.71-1.64A1.71,1.71,0,0,0,258,137.19Z" fill="#daa520"/><path d="M257.87,144.64a1.67,1.67,0,1,0,1.76,1.58A1.71,1.71,0,0,0,257.87,144.64Z" fill="#daa520"/><path d="M256.29,130.19a1.67,1.67,0,1,0,1.71-1.63A1.72,1.72,0,0,0,256.29,130.19Z" fill="#daa520"/><path d="M256.29,162.62A1.67,1.67,0,1,0,258,161,1.69,1.69,0,0,0,256.29,162.62Z" fill="#daa520"/><path d="M258,193.59a1.68,1.68,0,1,0,1.64,1.7A1.71,1.71,0,0,0,258,193.59Z" fill="#daa520"/><path d="M256.29,249.45a1.67,1.67,0,1,0,1.71-1.63A1.72,1.72,0,0,0,256.29,249.45Z" fill="#daa520"/><path d="M257.94,101.21a1.67,1.67,0,1,0,1.69,1.64A1.69,1.69,0,0,0,257.94,101.21Z" fill="#daa520"/><path d="M258,110.07a1.67,1.67,0,1,0-1.66-1.68A1.69,1.69,0,0,0,258,110.07Z" fill="#daa520"/><path d="M256.29,217.07a1.67,1.67,0,1,0,1.7-1.64A1.69,1.69,0,0,0,256.29,217.07Z" fill="#daa520"/><path d="M256.29,222.44a1.67,1.67,0,1,0,1.61-1.73A1.71,1.71,0,0,0,256.29,222.44Z" fill="#daa520"/><path d="M257.92,153.5a1.67,1.67,0,1,0-1.63-1.71A1.69,1.69,0,0,0,257.92,153.5Z" fill="#daa520"/><path d="M256.29,206.1a1.67,1.67,0,1,0,1.63-1.71A1.7,1.7,0,0,0,256.29,206.1Z" fill="#daa520"/><path d="M258,264.14a1.67,1.67,0,1,0,1.66,1.68A1.69,1.69,0,0,0,258,264.14Z" fill="#daa520"/><path d="M256.29,244.19a1.67,1.67,0,1,0,1.7-1.65A1.7,1.7,0,0,0,256.29,244.19Z" fill="#daa520"/><path d="M259.63,189.65a1.67,1.67,0,1,0-1.58,1.77A1.71,1.71,0,0,0,259.63,189.65Z" fill="#daa520"/><path d="M256.29,141.06a1.67,1.67,0,1,0,1.65-1.7A1.71,1.71,0,0,0,256.29,141.06Z" fill="#daa520"/><path d="M257.94,258.86a1.67,1.67,0,1,0,1.69,1.65A1.69,1.69,0,0,0,257.94,258.86Z" fill="#daa520"/><path d="M258,182.79a1.68,1.68,0,1,0,1.68,1.66A1.71,1.71,0,0,0,258,182.79Z" fill="#daa520"/><path d="M257.94,231.74a1.68,1.68,0,1,0,1.69,1.65A1.7,1.7,0,0,0,257.94,231.74Z" fill="#daa520"/><path d="M256.29,124.76a1.67,1.67,0,1,0,1.63-1.72A1.71,1.71,0,0,0,256.29,124.76Z" fill="#daa520"/><path d="M256.29,255a1.67,1.67,0,1,0,1.68-1.66A1.69,1.69,0,0,0,256.29,255Z" fill="#daa520"/><path d="M257.9,117.52a1.68,1.68,0,0,0,.12,3.35,1.68,1.68,0,0,0-.12-3.35Z" fill="#daa520"/><path d="M257.87,112.24a1.68,1.68,0,0,0,.18,3.35,1.68,1.68,0,0,0-.18-3.35Z" fill="#daa520"/><path d="M256.29,157.31a1.67,1.67,0,1,0,1.71-1.63A1.7,1.7,0,0,0,256.29,157.31Z" fill="#daa520"/><path d="M256.29,179a1.67,1.67,0,1,0,1.66-1.69A1.7,1.7,0,0,0,256.29,179Z" fill="#daa520"/><path d="M285,91.36a4.31,4.31,0,0,0-.72,0c-.39.07-.94-.27-1.16.26a1.66,1.66,0,0,0,.2,1.49,2,2,0,0,0,3.26.29,1.69,1.69,0,0,0,.41-1.77c-.23-.56-.84-.19-1.28-.27A4.19,4.19,0,0,0,285,91.36Z" fill="#daa520"/><path d="M256.29,173.67A1.67,1.67,0,1,0,258,172,1.7,1.7,0,0,0,256.29,173.67Z" fill="#daa520"/><path d="M256.29,211.62a1.67,1.67,0,1,0,1.63-1.71A1.7,1.7,0,0,0,256.29,211.62Z" fill="#daa520"/><path d="M256.29,168.1a1.67,1.67,0,1,0,1.71-1.63A1.7,1.7,0,0,0,256.29,168.1Z" fill="#daa520"/><path d="M256.29,238.72a1.67,1.67,0,1,0,1.65-1.7A1.71,1.71,0,0,0,256.29,238.72Z" fill="#daa520"/><path d="M258,229.57a1.68,1.68,0,0,0-.12-3.35,1.68,1.68,0,0,0,.12,3.35Z" fill="#daa520"/><path d="M267.16,189.7a1.91,1.91,0,0,0,1.87,1.88c.79,0,1.74-.8,1.72-1.41,0-.41-1.86-2.24-2.23-2.15A1.75,1.75,0,0,0,267.16,189.7Z" fill="#daa520"/><path d="M279.79,91.36H279c-1.13,0-1.43.48-.95,1.53a2,2,0,0,0,3.18.57,1.73,1.73,0,0,0,.51-1.74c-.2-.73-.87-.23-1.32-.35A2.31,2.31,0,0,0,279.79,91.36Z" fill="#daa520"/><path d="M304.65,103a5.08,5.08,0,0,0,.12.62c.14.43.37.91.77,1s.63-.4.88-.69a7.67,7.67,0,0,0,1.21-2.21c.35-.88,0-1.17-.85-1.12A2.27,2.27,0,0,0,304.65,103Z" fill="#daa520"/><path d="M274.21,91.36a1.84,1.84,0,0,0-.47,0c-.45.11-1.12-.35-1.32.38a1.68,1.68,0,0,0,.58,1.72,1.81,1.81,0,0,0,2.48.06,1.7,1.7,0,0,0,.65-1.79c-.2-.71-.87-.27-1.33-.37A2.32,2.32,0,0,0,274.21,91.36Z" fill="#daa520"/><path d="M251.08,162.6a1.61,1.61,0,0,0,3.21.06,1.61,1.61,0,1,0-3.21-.06Z" fill="#daa520"/><path d="M252.66,213.18a1.65,1.65,0,0,0,1.63-1.57,1.61,1.61,0,1,0-3.21-.06A1.64,1.64,0,0,0,252.66,213.18Z" fill="#daa520"/><path d="M252.66,137.12a1.61,1.61,0,1,0-1.58-1.63A1.65,1.65,0,0,0,252.66,137.12Z" fill="#daa520"/><path d="M252.66,267.42a1.61,1.61,0,1,0,.05-3.21,1.64,1.64,0,0,0-1.63,1.57A1.66,1.66,0,0,0,252.66,267.42Z" fill="#daa520"/><path d="M251.08,244.24a1.61,1.61,0,1,0,1.57-1.63A1.65,1.65,0,0,0,251.08,244.24Z" fill="#daa520"/><path d="M252.71,150.23a1.61,1.61,0,0,0-.06,3.21,1.67,1.67,0,0,0,1.64-1.58A1.64,1.64,0,0,0,252.71,150.23Z" fill="#daa520"/><path d="M251.08,114a1.61,1.61,0,1,0,1.57-1.64A1.65,1.65,0,0,0,251.08,114Z" fill="#daa520"/><path d="M252.71,240.3a1.61,1.61,0,1,0-1.63-1.58A1.65,1.65,0,0,0,252.71,240.3Z" fill="#daa520"/><path d="M251.08,217.13a1.61,1.61,0,0,0,3.21-.06,1.61,1.61,0,1,0-3.21.06Z" fill="#daa520"/><path d="M251.08,168.12a1.61,1.61,0,1,0,1.63-1.58A1.65,1.65,0,0,0,251.08,168.12Z" fill="#daa520"/><path d="M252.71,139.43a1.61,1.61,0,1,0,1.58,1.63A1.65,1.65,0,0,0,252.71,139.43Z" fill="#daa520"/><path d="M254.29,108.31a1.61,1.61,0,1,0-3.21.18,1.61,1.61,0,0,0,3.21-.18Z" fill="#daa520"/><path d="M252.71,262.14a1.61,1.61,0,1,0-.06-3.21,1.61,1.61,0,0,0,.06,3.21Z" fill="#daa520"/><path d="M251.08,222.41a1.61,1.61,0,0,0,3.21-.06,1.61,1.61,0,1,0-3.21.06Z" fill="#daa520"/><path d="M254.29,97.51a1.61,1.61,0,1,0-1.52,1.7A1.66,1.66,0,0,0,254.29,97.51Z" fill="#daa520"/><path d="M252.65,128.63a1.61,1.61,0,1,0,1.64,1.57A1.65,1.65,0,0,0,252.65,128.63Z" fill="#daa520"/><path d="M251.08,173.64a1.61,1.61,0,1,0,1.63-1.58A1.65,1.65,0,0,0,251.08,173.64Z" fill="#daa520"/><path d="M251.08,206.09a1.61,1.61,0,1,0,1.57-1.63A1.65,1.65,0,0,0,251.08,206.09Z" fill="#daa520"/><path d="M252.71,229.5a1.61,1.61,0,1,0-1.63-1.57A1.65,1.65,0,0,0,252.71,229.5Z" fill="#daa520"/><path d="M251.08,195.23a1.61,1.61,0,1,0,1.63-1.57A1.65,1.65,0,0,0,251.08,195.23Z" fill="#daa520"/><path d="M251.08,157.38a1.61,1.61,0,0,0,3.21-.06,1.61,1.61,0,1,0-3.21.06Z" fill="#daa520"/><path d="M251.08,179a1.61,1.61,0,1,0,1.57-1.64A1.65,1.65,0,0,0,251.08,179Z" fill="#daa520"/><path d="M252.65,144.71a1.64,1.64,0,0,0-1.57,1.63,1.61,1.61,0,1,0,1.57-1.63Z" fill="#daa520"/><path d="M252.71,256.62a1.61,1.61,0,1,0-1.63-1.58A1.66,1.66,0,0,0,252.71,256.62Z" fill="#daa520"/><path d="M252.65,101.27a1.61,1.61,0,1,0,1.64,1.58A1.65,1.65,0,0,0,252.65,101.27Z" fill="#daa520"/><path d="M251.08,184.49a1.61,1.61,0,1,0,1.57-1.63A1.65,1.65,0,0,0,251.08,184.49Z" fill="#daa520"/><path d="M252.71,126.32a1.61,1.61,0,1,0-1.63-1.57A1.66,1.66,0,0,0,252.71,126.32Z" fill="#daa520"/><path d="M252.59,231.81a1.61,1.61,0,1,0,1.7,1.52A1.66,1.66,0,0,0,252.59,231.81Z" fill="#daa520"/><path d="M251.08,200.75a1.61,1.61,0,1,0,1.63-1.57A1.65,1.65,0,0,0,251.08,200.75Z" fill="#daa520"/><path d="M251.08,249.52a1.61,1.61,0,1,0,1.57-1.63A1.65,1.65,0,0,0,251.08,249.52Z" fill="#daa520"/><path d="M252.65,188.14a1.61,1.61,0,1,0,1.64,1.57A1.65,1.65,0,0,0,252.65,188.14Z" fill="#daa520"/><path d="M252.65,117.59a1.61,1.61,0,1,0,1.64,1.57A1.65,1.65,0,0,0,252.65,117.59Z" fill="#daa520"/><path d="M294,135.53a1.67,1.67,0,0,0,.25,1c.28.5.68,1,1.24,1s.43-.73.59-1.13c.28-.7.33-1.5.64-2.19s-.05-.81-.6-.81A2.18,2.18,0,0,0,294,135.53Z" fill="#daa520"/><path d="M279.76,160.69a1.92,1.92,0,0,0-1.91,2,1.55,1.55,0,0,0,.83,1.49c.61.26.79-.49,1.16-.79a4.86,4.86,0,0,0,.78-1c.23-.33.89-.5.67-1A1.51,1.51,0,0,0,279.76,160.69Z" fill="#daa520"/><path d="M272.38,168.3a1.6,1.6,0,0,0,.83,1.38c.55.24.72-.44,1.06-.7a5,5,0,0,0,.92-.92c.23-.32.86-.44.63-1a1.58,1.58,0,0,0-1.25-.81A1.94,1.94,0,0,0,272.38,168.3Z" fill="#daa520"/><path d="M269,93.93a1.86,1.86,0,0,0,1.75-1.33c.22-.77.18-1.36-.89-1.25-.43.05-.88,0-1.31,0s-1.12-.37-1.31.4a1.68,1.68,0,0,0,.62,1.71A2.3,2.3,0,0,0,269,93.93Z" fill="#daa520"/><path d="M283.31,206a2,2,0,0,0,1.85,2.06,1.51,1.51,0,0,0,1.41-.46c.33-.5-.35-.75-.53-1.12a8.06,8.06,0,0,0-1.07-1.37c-.22-.28-.24-.86-.77-.69a1.37,1.37,0,0,0-.79,1A3.69,3.69,0,0,0,283.31,206Z" fill="#daa520"/><path d="M263.44,91.29c-.52.41-1.67-.63-1.68.82a1.72,1.72,0,0,0,3.44,0C265.21,90.64,264,91.71,263.44,91.29Z" fill="#daa520"/><path d="M245.67,195.21c.07.93.52,1.51,1.48,1.52a1.34,1.34,0,0,0,1.48-1.48,1.32,1.32,0,0,0-1.39-1.45A1.4,1.4,0,0,0,245.67,195.21Z" fill="#daa520"/><path d="M247.11,245.71c.93-.07,1.52-.52,1.52-1.48a1.47,1.47,0,0,0-2.93-.09A1.4,1.4,0,0,0,247.11,245.71Z" fill="#daa520"/><path d="M245.66,151.72c.09,1,.55,1.59,1.51,1.58a1.47,1.47,0,0,0,.05-2.94A1.43,1.43,0,0,0,245.66,151.72Z" fill="#daa520"/><path d="M247.27,112.42c-1,.08-1.58.55-1.57,1.51a1.47,1.47,0,0,0,2.93,0A1.41,1.41,0,0,0,247.27,112.42Z" fill="#daa520"/><path d="M245.67,238.55c.06,1,.51,1.6,1.47,1.61a1.34,1.34,0,0,0,1.49-1.47,1.33,1.33,0,0,0-1.38-1.46A1.42,1.42,0,0,0,245.67,238.55Z" fill="#daa520"/><path d="M245.67,108.44a1.39,1.39,0,0,0,1.55,1.42,1.47,1.47,0,0,0-.06-2.93C246.21,106.93,245.74,107.5,245.67,108.44Z" fill="#daa520"/><path d="M247.2,191.48a1.4,1.4,0,0,0,1.43-1.56,1.34,1.34,0,0,0-1.56-1.4A1.32,1.32,0,0,0,245.7,190C245.7,190.94,246.27,191.4,247.2,191.48Z" fill="#daa520"/><path d="M247,120.69c1-.06,1.6-.52,1.6-1.48a1.34,1.34,0,0,0-1.48-1.48,1.32,1.32,0,0,0-1.45,1.39A1.41,1.41,0,0,0,247,120.69Z" fill="#daa520"/><path d="M245.67,249.52c.11.93.59,1.48,1.55,1.44a1.47,1.47,0,0,0-.05-2.94C246.21,248,245.75,248.59,245.67,249.52Z" fill="#daa520"/><path d="M245.67,200.72c.06.94.51,1.52,1.47,1.53a1.47,1.47,0,0,0,.11-2.94A1.42,1.42,0,0,0,245.67,200.72Z" fill="#daa520"/><path d="M245.66,233.33c.1,1,.57,1.57,1.53,1.55a1.47,1.47,0,0,0,0-2.93A1.42,1.42,0,0,0,245.66,233.33Z" fill="#daa520"/><path d="M245.67,102.74c.06,1,.51,1.59,1.47,1.61a1.47,1.47,0,0,0,.11-2.94A1.43,1.43,0,0,0,245.67,102.74Z" fill="#daa520"/><path d="M245.67,184.41c.07.93.52,1.52,1.48,1.52a1.34,1.34,0,0,0,1.48-1.48,1.32,1.32,0,0,0-1.39-1.45A1.4,1.4,0,0,0,245.67,184.41Z" fill="#daa520"/><path d="M245.67,146.24c.06.94.51,1.53,1.47,1.54a1.47,1.47,0,0,0,.11-2.94A1.41,1.41,0,0,0,245.67,146.24Z" fill="#daa520"/><path d="M247.1,177.45c-1,.15-1.48.68-1.4,1.62a1.35,1.35,0,0,0,1.62,1.34,1.33,1.33,0,0,0,1.31-1.53A1.41,1.41,0,0,0,247.1,177.45Z" fill="#daa520"/><path d="M245.66,124.71c.13,1,.63,1.52,1.58,1.47a1.47,1.47,0,0,0-.1-2.93A1.41,1.41,0,0,0,245.66,124.71Z" fill="#daa520"/><path d="M247.16,158.84c.93-.09,1.49-.56,1.47-1.52a1.47,1.47,0,0,0-2.93,0A1.4,1.4,0,0,0,247.16,158.84Z" fill="#daa520"/><path d="M245.67,227.93a1.4,1.4,0,0,0,1.55,1.43,1.47,1.47,0,0,0-.05-2.93C246.21,226.43,245.75,227,245.67,227.93Z" fill="#daa520"/><path d="M245.67,254.88c.06,1,.51,1.59,1.47,1.6a1.47,1.47,0,0,0,.11-2.94A1.43,1.43,0,0,0,245.67,254.88Z" fill="#daa520"/><path d="M247.08,175.17c1-.1,1.57-.58,1.55-1.53a1.47,1.47,0,0,0-2.94,0A1.43,1.43,0,0,0,247.08,175.17Z" fill="#daa520"/><path d="M247.11,207.56c1-.11,1.56-.6,1.52-1.55a1.47,1.47,0,0,0-2.94,0A1.41,1.41,0,0,0,247.11,207.56Z" fill="#daa520"/><path d="M245.67,97.58c.08.93.55,1.5,1.51,1.49a1.47,1.47,0,0,0,0-2.94A1.41,1.41,0,0,0,245.67,97.58Z" fill="#daa520"/><path d="M247.13,131.74c1-.12,1.54-.61,1.5-1.57a1.47,1.47,0,0,0-2.94.07A1.42,1.42,0,0,0,247.13,131.74Z" fill="#daa520"/><path d="M247.18,220.88c-.93.09-1.5.56-1.48,1.52a1.47,1.47,0,0,0,2.93,0A1.41,1.41,0,0,0,247.18,220.88Z" fill="#daa520"/><path d="M245.67,135.45c.06.94.52,1.52,1.48,1.53a1.34,1.34,0,0,0,1.48-1.48,1.32,1.32,0,0,0-1.39-1.45A1.4,1.4,0,0,0,245.67,135.45Z" fill="#daa520"/><path d="M247,262c1-.07,1.59-.53,1.59-1.49a1.47,1.47,0,0,0-2.93-.08A1.42,1.42,0,0,0,247,262Z" fill="#daa520"/><path d="M245.67,217c.06.94.51,1.53,1.47,1.54a1.47,1.47,0,0,0,.11-2.94A1.41,1.41,0,0,0,245.67,217Z" fill="#daa520"/><path d="M245.66,140.94c.1,1,.57,1.58,1.52,1.56a1.47,1.47,0,0,0,0-2.94A1.43,1.43,0,0,0,245.66,140.94Z" fill="#daa520"/><path d="M247.11,169.64c.94-.07,1.52-.52,1.52-1.48a1.34,1.34,0,0,0-1.48-1.48,1.33,1.33,0,0,0-1.45,1.4A1.4,1.4,0,0,0,247.11,169.64Z" fill="#daa520"/><path d="M258.14,93.75a1.59,1.59,0,0,0,1.39-1.13c.24-.72.25-1.37-.84-1.26-.32,0-.64,0-.95,0-.56.1-1.48-.45-1.45.77A1.73,1.73,0,0,0,258.14,93.75Z" fill="#daa520"/><path d="M245.67,265.75c.06.94.52,1.52,1.48,1.53a1.47,1.47,0,0,0,.09-2.94A1.41,1.41,0,0,0,245.67,265.75Z" fill="#daa520"/><path d="M247.12,164.12c.94-.07,1.51-.53,1.51-1.49a1.34,1.34,0,0,0-1.49-1.47,1.33,1.33,0,0,0-1.44,1.4A1.4,1.4,0,0,0,247.12,164.12Z" fill="#daa520"/><path d="M245.66,211.48c.1,1,.56,1.58,1.52,1.57a1.47,1.47,0,0,0,0-2.94A1.42,1.42,0,0,0,245.66,211.48Z" fill="#daa520"/><path d="M267.17,173.7a1.53,1.53,0,0,0,.67,1.33c.53.26.7-.38,1-.63s.77-.81,1.2-1.16c.63-.51.41-.85-.15-1.16a1.75,1.75,0,0,0-1.82,0A1.83,1.83,0,0,0,267.17,173.7Z" fill="#daa520"/><path d="M241.68,120.63c.86-.15,1.42-.62,1.36-1.52a1.29,1.29,0,0,0-1.42-1.31,1.31,1.31,0,0,0-1.37,1.48A1.4,1.4,0,0,0,241.68,120.63Z" fill="#daa520"/><path d="M241.68,147.74a1.4,1.4,0,0,0,1.37-1.4,1.4,1.4,0,1,0-2.8.06A1.39,1.39,0,0,0,241.68,147.74Z" fill="#daa520"/><path d="M240.45,233.39c.1.86.55,1.44,1.44,1.43a1.41,1.41,0,0,0,.05-2.81A1.39,1.39,0,0,0,240.45,233.39Z" fill="#daa520"/><path d="M241.88,199.34c-.86.13-1.43.59-1.4,1.48a1.32,1.32,0,0,0,1.48,1.37,1.3,1.3,0,0,0,1.33-1.39C243.3,199.91,242.74,199.46,241.88,199.34Z" fill="#daa520"/><path d="M241.65,112.48c-.91.17-1.47.65-1.4,1.54a1.3,1.3,0,0,0,1.44,1.3,1.32,1.32,0,0,0,1.35-1.51A1.41,1.41,0,0,0,241.65,112.48Z" fill="#daa520"/><path d="M241.89,237.25c-.91.16-1.47.63-1.41,1.52a1.41,1.41,0,0,0,2.81-.09C243.28,237.78,242.69,237.37,241.89,237.25Z" fill="#daa520"/><path d="M240.45,265.76c.09.87.53,1.45,1.42,1.46a1.41,1.41,0,0,0,.09-2.82C241.08,264.35,240.6,264.91,240.45,265.76Z" fill="#daa520"/><path d="M241.68,164.06c.86-.15,1.42-.62,1.36-1.52a1.29,1.29,0,0,0-1.42-1.31,1.31,1.31,0,0,0-1.37,1.49A1.39,1.39,0,0,0,241.68,164.06Z" fill="#daa520"/><path d="M240.21,108.35c.1.86.54,1.44,1.44,1.45a1.4,1.4,0,0,0,0-2.8C240.81,107,240.36,107.53,240.21,108.35Z" fill="#daa520"/><path d="M241.71,136.94c.85-.16,1.4-.64,1.33-1.54a1.3,1.3,0,0,0-1.45-1.29,1.31,1.31,0,0,0-1.34,1.51A1.39,1.39,0,0,0,241.71,136.94Z" fill="#daa520"/><path d="M241.89,210.13c-.91.16-1.47.64-1.41,1.53a1.41,1.41,0,0,0,2.81-.1A1.42,1.42,0,0,0,241.89,210.13Z" fill="#daa520"/><path d="M241.67,196.69c.86-.14,1.42-.61,1.37-1.5a1.4,1.4,0,1,0-2.79.15A1.38,1.38,0,0,0,241.67,196.69Z" fill="#daa520"/><path d="M240.21,141.06c.14.86.62,1.42,1.51,1.37a1.31,1.31,0,0,0,1.33-1.42,1.32,1.32,0,0,0-1.48-1.38A1.41,1.41,0,0,0,240.21,141.06Z" fill="#daa520"/><path d="M241.81,218.55c.92-.12,1.49-.57,1.48-1.46a1.41,1.41,0,0,0-2.81,0A1.43,1.43,0,0,0,241.81,218.55Z" fill="#daa520"/><path d="M240.45,244.24c.14.86.6,1.42,1.49,1.38a1.31,1.31,0,0,0,1.35-1.49,1.3,1.3,0,0,0-1.4-1.32C241,242.81,240.55,243.38,240.45,244.24Z" fill="#daa520"/><path d="M241.61,153.26c.86-.1,1.44-.55,1.44-1.44a1.4,1.4,0,1,0-2.8,0C240.24,152.68,240.79,153.12,241.61,153.26Z" fill="#daa520"/><path d="M240.45,227.84c.08.87.52,1.45,1.41,1.46a1.41,1.41,0,0,0,.11-2.81A1.4,1.4,0,0,0,240.45,227.84Z" fill="#daa520"/><path d="M241.67,188.55a1.39,1.39,0,0,0-1.42,1.45,1.29,1.29,0,0,0,1.35,1.38,1.32,1.32,0,0,0,1.45-1.41C243.05,189.13,242.5,188.69,241.67,188.55Z" fill="#daa520"/><path d="M240.21,124.74c.13.81.57,1.37,1.4,1.38a1.4,1.4,0,1,0-.05-2.8A1.4,1.4,0,0,0,240.21,124.74Z" fill="#daa520"/><path d="M241.84,259.09c-.85.15-1.41.62-1.36,1.51a1.32,1.32,0,0,0,1.51,1.34,1.3,1.3,0,0,0,1.3-1.42C243.28,259.63,242.71,259.19,241.84,259.09Z" fill="#daa520"/><path d="M240.21,168.13c.11.85.56,1.43,1.46,1.42a1.4,1.4,0,0,0,0-2.8C240.79,166.75,240.34,167.3,240.21,168.13Z" fill="#daa520"/><path d="M241.9,250.93c.86-.13,1.43-.6,1.39-1.48a1.41,1.41,0,0,0-2.81,0C240.48,250.37,241,250.82,241.9,250.93Z" fill="#daa520"/><path d="M240.21,102.86a1.41,1.41,0,0,0,1.47,1.42,1.31,1.31,0,0,0,1.37-1.37,1.32,1.32,0,0,0-1.44-1.43C240.78,101.49,240.34,102,240.21,102.86Z" fill="#daa520"/><path d="M240.45,206.08c.13.86.59,1.42,1.48,1.39a1.41,1.41,0,0,0,0-2.82C241,204.65,240.56,205.22,240.45,206.08Z" fill="#daa520"/><path d="M240.21,130.25a1.4,1.4,0,0,0,1.5,1.38,1.3,1.3,0,0,0,1.34-1.4,1.33,1.33,0,0,0-1.47-1.4C240.75,128.86,240.32,129.42,240.21,130.25Z" fill="#daa520"/><path d="M240.21,157.39a1.4,1.4,0,0,0,1.41,1.36,1.4,1.4,0,1,0-.07-2.8A1.41,1.41,0,0,0,240.21,157.39Z" fill="#daa520"/><path d="M241.71,99c.85-.16,1.4-.64,1.33-1.54a1.3,1.3,0,0,0-1.45-1.29,1.31,1.31,0,0,0-1.34,1.51A1.39,1.39,0,0,0,241.71,99Z" fill="#daa520"/><path d="M241.92,223.82c.85-.15,1.42-.62,1.37-1.5a1.41,1.41,0,0,0-2.81.06A1.41,1.41,0,0,0,241.92,223.82Z" fill="#daa520"/><path d="M240.45,255c.1.86.55,1.44,1.44,1.43a1.41,1.41,0,0,0,.05-2.82C241.05,253.57,240.58,254.13,240.45,255Z" fill="#daa520"/><path d="M252.71,91.32c-.55.26-1.57-.5-1.63.78a1.6,1.6,0,1,0,3.2-.06C254.19,90.86,253.25,91.56,252.71,91.32Z" fill="#daa520"/><path d="M241.89,175.08a1.39,1.39,0,0,0,1.16-1.54,1.41,1.41,0,0,0-2.81,0C240.18,174,241.41,175.11,241.89,175.08Z" fill="#daa520"/><path d="M285.2,155.35a2,2,0,0,0-1.92,2.92c.21.39.43.68.84.16a25.65,25.65,0,0,0,1.76-2.28C286.41,155.26,285.49,155.51,285.2,155.35Z" fill="#daa520"/><path d="M247.1,91.32c-.52.22-1.42-.41-1.42.76a1.43,1.43,0,0,0,1.52,1.47,1.34,1.34,0,0,0,1.43-1.42C248.67,90.79,247.6,91.61,247.1,91.32Z" fill="#daa520"/><path d="M294,270.81h4.08a1.84,1.84,0,0,0-1.85-1.62A2,2,0,0,0,294,270.81Z" fill="#daa520"/><path d="M299.27,270.86a19.85,19.85,0,0,0,3.49-.21c.78-.19.61-.41.28-.81C302,268.55,300,269,299.27,270.86Z" fill="#daa520"/><path d="M241.63,91.35c-.58.1-1.46-.31-1.39.78a1.36,1.36,0,0,0,1.39,1.36A1.42,1.42,0,0,0,243.06,92C243,90.94,242.12,91.52,241.63,91.35Z" fill="#daa520"/><path d="M235.07,130.26a1.22,1.22,0,0,0,1.3,1.26,1.19,1.19,0,0,0,1.28-1.37,1.18,1.18,0,0,0-1.34-1.2A1.22,1.22,0,0,0,235.07,130.26Z" fill="#daa520"/><path d="M236.39,158.65a1.22,1.22,0,0,0,1.26-1.3,1.19,1.19,0,0,0-1.37-1.28,1.17,1.17,0,0,0-1.19,1.34A1.22,1.22,0,0,0,236.39,158.65Z" fill="#daa520"/><path d="M236.32,104.18a1.23,1.23,0,0,0,1.33-1.24,1.29,1.29,0,1,0-2.57-.06A1.23,1.23,0,0,0,236.32,104.18Z" fill="#daa520"/><path d="M236.37,248.19a1.22,1.22,0,0,0-1.28,1.26,1.28,1.28,0,1,0,2.56,0A1.24,1.24,0,0,0,236.37,248.19Z" fill="#daa520"/><path d="M237.67,168.14a1.23,1.23,0,0,0-1.28-1.27,1.15,1.15,0,0,0-1.3,1.22,1.21,1.21,0,0,0,1.32,1.34A1.22,1.22,0,0,0,237.67,168.14Z" fill="#daa520"/><path d="M236.41,123.42a1.21,1.21,0,0,0-1.32,1.21,1.28,1.28,0,1,0,2.56.11A1.22,1.22,0,0,0,236.41,123.42Z" fill="#daa520"/><path d="M236.3,142.33a1.23,1.23,0,0,0,1.35-1.21,1.19,1.19,0,0,0-1.28-1.37,1.16,1.16,0,0,0-1.28,1.25A1.22,1.22,0,0,0,236.3,142.33Z" fill="#daa520"/><path d="M236.4,150.53c-.83.07-1.31.48-1.31,1.28a1.28,1.28,0,1,0,2.56,0A1.22,1.22,0,0,0,236.4,150.53Z" fill="#daa520"/><path d="M235.07,260.53a1.22,1.22,0,0,0,1.27,1.28,1.28,1.28,0,1,0,0-2.56A1.22,1.22,0,0,0,235.07,260.53Z" fill="#daa520"/><path d="M236.28,204.76a1.23,1.23,0,0,0-1.19,1.37,1.18,1.18,0,0,0,1.44,1.2,1.17,1.17,0,0,0,1.11-1.4A1.23,1.23,0,0,0,236.28,204.76Z" fill="#daa520"/><path d="M235.07,227.85a1.23,1.23,0,0,0,1.24,1.33,1.29,1.29,0,1,0,.05-2.57A1.23,1.23,0,0,0,235.07,227.85Z" fill="#daa520"/><path d="M236.39,96.3c-.83.08-1.31.5-1.3,1.29a1.28,1.28,0,1,0,2.56,0A1.22,1.22,0,0,0,236.39,96.3Z" fill="#daa520"/><path d="M235.07,217.12a1.22,1.22,0,0,0,1.3,1.26,1.19,1.19,0,0,0,1.28-1.37,1.18,1.18,0,0,0-1.34-1.19A1.22,1.22,0,0,0,235.07,217.12Z" fill="#daa520"/><path d="M235.07,162.64a1.23,1.23,0,0,0,1.29,1.27,1.19,1.19,0,0,0,1.29-1.36,1.18,1.18,0,0,0-1.33-1.2A1.21,1.21,0,0,0,235.07,162.64Z" fill="#daa520"/><path d="M235.07,135.53a1.21,1.21,0,0,0,1.3,1.26,1.28,1.28,0,1,0-.06-2.56A1.22,1.22,0,0,0,235.07,135.53Z" fill="#daa520"/><path d="M235.06,108.39c.09.82.51,1.3,1.31,1.29a1.28,1.28,0,1,0-.06-2.56A1.23,1.23,0,0,0,235.06,108.39Z" fill="#daa520"/><path d="M236.37,194a1.22,1.22,0,0,0-1.28,1.26,1.28,1.28,0,1,0,2.56,0A1.24,1.24,0,0,0,236.37,194Z" fill="#daa520"/><path d="M235.07,238.65a1.21,1.21,0,0,0,1.21,1.32,1.28,1.28,0,1,0,.11-2.56A1.23,1.23,0,0,0,235.07,238.65Z" fill="#daa520"/><path d="M236.32,267.11a1.23,1.23,0,0,0,1.33-1.21,1.19,1.19,0,0,0-1.28-1.37,1.16,1.16,0,0,0-1.28,1.25A1.22,1.22,0,0,0,236.32,267.11Z" fill="#daa520"/><path d="M235.07,222.34c.06.82.47,1.31,1.27,1.32a1.19,1.19,0,0,0,1.31-1.34,1.17,1.17,0,0,0-1.31-1.22A1.21,1.21,0,0,0,235.07,222.34Z" fill="#daa520"/><path d="M235.06,113.9c.09.83.51,1.31,1.31,1.3a1.19,1.19,0,0,0,1.28-1.37,1.18,1.18,0,0,0-1.34-1.19A1.23,1.23,0,0,0,235.06,113.9Z" fill="#daa520"/><path d="M235.07,119.17a1.22,1.22,0,0,0,1.23,1.31,1.2,1.2,0,0,0,1.35-1.31,1.18,1.18,0,0,0-1.28-1.26A1.23,1.23,0,0,0,235.07,119.17Z" fill="#daa520"/><path d="M236.37,212.88a1.22,1.22,0,0,0,1.28-1.28,1.19,1.19,0,0,0-1.35-1.3,1.17,1.17,0,0,0-1.21,1.31A1.22,1.22,0,0,0,236.37,212.88Z" fill="#daa520"/><path d="M236.32,202.08a1.22,1.22,0,0,0,1.33-1.21,1.19,1.19,0,0,0-1.28-1.37,1.16,1.16,0,0,0-1.28,1.25A1.22,1.22,0,0,0,236.32,202.08Z" fill="#daa520"/><path d="M237.67,255c-.13-.82-.59-1.27-1.37-1.22a1.18,1.18,0,0,0-1.2,1.44,1.17,1.17,0,0,0,1.4,1.12A1.24,1.24,0,0,0,237.67,255Z" fill="#daa520"/><path d="M236.41,232.12a1.21,1.21,0,0,0-1.32,1.21,1.28,1.28,0,1,0,2.56.11A1.22,1.22,0,0,0,236.41,232.12Z" fill="#daa520"/><path d="M236.45,147.61a1.23,1.23,0,0,0,1.2-1.37,1.19,1.19,0,0,0-1.44-1.2,1.17,1.17,0,0,0-1.12,1.4A1.23,1.23,0,0,0,236.45,147.61Z" fill="#daa520"/><path d="M235.07,244.21c.07.79.48,1.28,1.27,1.28a1.28,1.28,0,1,0,0-2.56A1.22,1.22,0,0,0,235.07,244.21Z" fill="#daa520"/><path d="M288.59,270.85h3.34c.19,0,.45,0,.53-.12s0-.44-.17-.62a1.94,1.94,0,0,0-1.84-.87A2,2,0,0,0,288.59,270.85Z" fill="#daa520"/><path d="M229.63,211.52c.07.74.43,1.22,1.17,1.25a1.19,1.19,0,1,0,.1-2.38A1.19,1.19,0,0,0,229.63,211.52Z" fill="#daa520"/><path d="M229.63,255c.08.72.45,1.2,1.19,1.21A1.1,1.1,0,0,0,232,255a1.11,1.11,0,0,0-1.17-1.22C230.12,253.8,229.74,254.27,229.63,255Z" fill="#daa520"/><path d="M229.63,260.47c.07.74.43,1.22,1.17,1.25a1.19,1.19,0,1,0,.1-2.38A1.19,1.19,0,0,0,229.63,260.47Z" fill="#daa520"/><path d="M230.9,234.63a1.17,1.17,0,0,0,1.14-1.26,1.19,1.19,0,0,0-2.38.09A1.17,1.17,0,0,0,230.9,234.63Z" fill="#daa520"/><path d="M229.62,130.15c.11.81.48,1.28,1.23,1.27a1.19,1.19,0,1,0,0-2.37A1.19,1.19,0,0,0,229.62,130.15Z" fill="#daa520"/><path d="M229.63,206c.08.73.45,1.21,1.19,1.22a1.19,1.19,0,1,0,.05-2.38C230.12,204.85,229.74,205.32,229.63,206Z" fill="#daa520"/><path d="M230.82,221.16c-.71.11-1.18.49-1.16,1.24a1.19,1.19,0,0,0,2.38-.05C232,221.61,231.55,221.24,230.82,221.16Z" fill="#daa520"/><path d="M230.82,115.13c.73-.08,1.21-.44,1.22-1.19a1.19,1.19,0,1,0-2.38,0C229.64,114.64,230.11,115,230.82,115.13Z" fill="#daa520"/><path d="M230.87,120.41c.72-.11,1.19-.49,1.17-1.24a1.19,1.19,0,0,0-2.38,0C229.67,120,230.15,120.33,230.87,120.41Z" fill="#daa520"/><path d="M229.62,97.52c.11.8.48,1.27,1.23,1.27a1.19,1.19,0,0,0,0-2.38A1.19,1.19,0,0,0,229.62,97.52Z" fill="#daa520"/><path d="M229.63,146.31c.1.72.47,1.19,1.22,1.19a1.19,1.19,0,0,0,0-2.38C230.1,145.12,229.73,145.59,229.63,146.31Z" fill="#daa520"/><path d="M229.63,217.16a1.19,1.19,0,0,0,1.27,1.13,1.19,1.19,0,0,0-.1-2.38C230.06,215.94,229.7,216.42,229.63,217.16Z" fill="#daa520"/><path d="M229.63,157.3c.07.73.43,1.21,1.17,1.24a1.19,1.19,0,1,0,.09-2.38C230.14,156.13,229.76,156.59,229.63,157.3Z" fill="#daa520"/><path d="M230.79,161.41c-.71.13-1.17.52-1.13,1.27a1.19,1.19,0,0,0,2.38-.1C232,161.84,231.53,161.48,230.79,161.41Z" fill="#daa520"/><path d="M230.93,237.47c-.8.1-1.27.47-1.27,1.22a1.19,1.19,0,0,0,2.38,0A1.2,1.2,0,0,0,230.93,237.47Z" fill="#daa520"/><path d="M229.63,135.39c.07.81.43,1.29,1.17,1.31a1.09,1.09,0,0,0,1.24-1.14,1.12,1.12,0,0,0-1.15-1.24A1.19,1.19,0,0,0,229.63,135.39Z" fill="#daa520"/><path d="M230.87,264.59c-.72.08-1.2.45-1.21,1.2a1.19,1.19,0,0,0,2.38,0C232.06,265.08,231.59,264.7,230.87,264.59Z" fill="#daa520"/><path d="M229.63,102.88c.1.72.47,1.19,1.22,1.19a1.19,1.19,0,1,0,0-2.38C230.1,101.69,229.73,102.16,229.63,102.88Z" fill="#daa520"/><path d="M229.63,249.49c.1.73.47,1.2,1.22,1.19a1.19,1.19,0,1,0,0-2.38C230.1,248.3,229.73,248.77,229.63,249.49Z" fill="#daa520"/><path d="M229.63,200.75c.08.73.45,1.21,1.19,1.22a1.19,1.19,0,1,0,.05-2.38C230.12,199.57,229.74,200,229.63,200.75Z" fill="#daa520"/><path d="M229.63,124.72c.1.72.47,1.19,1.22,1.18a1.19,1.19,0,1,0,0-2.37C230.1,123.52,229.73,124,229.63,124.72Z" fill="#daa520"/><path d="M229.63,151.77c.07.74.43,1.22,1.17,1.25a1.19,1.19,0,1,0,.1-2.38A1.19,1.19,0,0,0,229.63,151.77Z" fill="#daa520"/><path d="M229.62,141c.11.8.48,1.27,1.23,1.27a1.19,1.19,0,0,0,0-2.38A1.2,1.2,0,0,0,229.62,141Z" fill="#daa520"/><path d="M230.81,109.62c.78-.11,1.25-.5,1.23-1.25a1.19,1.19,0,0,0-2.38,0A1.19,1.19,0,0,0,230.81,109.62Z" fill="#daa520"/><path d="M229.62,227.85c.12.79.5,1.25,1.25,1.23a1.19,1.19,0,1,0-.05-2.37A1.19,1.19,0,0,0,229.62,227.85Z" fill="#daa520"/><path d="M230.79,243a1.17,1.17,0,0,0-1.13,1.26,1.09,1.09,0,0,0,1.23,1.14,1.1,1.1,0,0,0,1.15-1.23C232,243.42,231.53,243.06,230.79,243Z" fill="#daa520"/><path d="M303.3,256.08a9.35,9.35,0,0,0-3.89-.31C300.26,257.59,302,257.73,303.3,256.08Z" fill="#daa520"/><path d="M283.35,270.79h3.9a1.91,1.91,0,0,0-1.92-1.47A2,2,0,0,0,283.35,270.79Z" fill="#daa520"/><path d="M236.37,91.35c-.49.12-1.29-.33-1.29.69a1.2,1.2,0,0,0,1.33,1.32,1.18,1.18,0,0,0,1.24-1.29C237.68,91.05,236.89,91.44,236.37,91.35Z" fill="#daa520"/><path d="M277.88,270.8h3.83a2,2,0,0,0-3.83,0Z" fill="#daa520"/><path d="M224.48,108.39a1,1,0,0,0,1.05,1.09,1.08,1.08,0,1,0,0-2.16A1,1,0,0,0,224.48,108.39Z" fill="#daa520"/><path d="M225.59,243.12a1.06,1.06,0,0,0-1.1,1,1,1,0,0,0,1,1.14,1,1,0,0,0,1.19-1.05C226.67,243.58,226.27,243.21,225.59,243.12Z" fill="#daa520"/><path d="M226.66,233.41a1,1,0,0,0-1.07-1.07,1,1,0,0,0-1.1,1.14,1,1,0,0,0,1.12,1A1,1,0,0,0,226.66,233.41Z" fill="#daa520"/><path d="M225.59,261.62c.68-.09,1.08-.47,1.06-1.11a1.08,1.08,0,1,0-2.16.11A1,1,0,0,0,225.59,261.62Z" fill="#daa520"/><path d="M224.48,141a1,1,0,0,0,1.1,1.07,1,1,0,0,0,1.06-1.18,1,1,0,0,0-1.14-1A1,1,0,0,0,224.48,141Z" fill="#daa520"/><path d="M225.56,226.81a1,1,0,0,0-1.07,1.06,1,1,0,0,0,1.15,1.1,1,1,0,0,0,1-1.11A1,1,0,0,0,225.56,226.81Z" fill="#daa520"/><path d="M224.48,211.57c.08.7.45,1.1,1.1,1.09a1,1,0,0,0,1.06-1.18,1,1,0,0,0-1.14-1A1,1,0,0,0,224.48,211.57Z" fill="#daa520"/><path d="M224.48,130.25a1,1,0,0,0,1.08,1.06,1,1,0,0,0,1.09-1.16,1,1,0,0,0-1.13-1A1,1,0,0,0,224.48,130.25Z" fill="#daa520"/><path d="M230.71,91.37c-.37,0-1.13-.23-1.05.77a1.1,1.1,0,0,0,1.14,1.13A1.12,1.12,0,0,0,232,92.11C232.1,91.21,231.44,91.36,230.71,91.37Z" fill="#daa520"/><path d="M224.48,102.91a1,1,0,0,0,1,1,1.08,1.08,0,1,0,.08-2.16C224.94,101.79,224.55,102.18,224.48,102.91Z" fill="#daa520"/><path d="M224.48,217.12a1,1,0,0,0,1.08,1.06,1,1,0,0,0,1.09-1.16,1,1,0,0,0-1.13-1A1,1,0,0,0,224.48,217.12Z" fill="#daa520"/><path d="M225.58,125.81c.69-.09,1.09-.47,1.07-1.12a1.08,1.08,0,1,0-2.16.11A1.05,1.05,0,0,0,225.58,125.81Z" fill="#daa520"/><path d="M225.59,207.16a1.06,1.06,0,0,0,1.06-1.2,1,1,0,0,0-1.12-1,1,1,0,0,0-1,1.18A1.05,1.05,0,0,0,225.59,207.16Z" fill="#daa520"/><path d="M224.48,249.49a1,1,0,0,0,1.06,1.08,1,1,0,0,0,1.11-1.14,1,1,0,0,0-1.11-1A1,1,0,0,0,224.48,249.49Z" fill="#daa520"/><path d="M224.48,113.91a1,1,0,0,0,1.05,1.09,1.08,1.08,0,1,0,0-2.16A1,1,0,0,0,224.48,113.91Z" fill="#daa520"/><path d="M224.48,265.8a1,1,0,0,0,1,1.09,1.08,1.08,0,1,0,.06-2.16C224.92,264.72,224.56,265.13,224.48,265.8Z" fill="#daa520"/><path d="M224.48,119.18a1,1,0,0,0,1,1.09,1,1,0,0,0,1.13-1,1,1,0,0,0-1.09-1.15A1,1,0,0,0,224.48,119.18Z" fill="#daa520"/><path d="M225.59,98.69a1,1,0,0,0,1.06-1.08,1,1,0,0,0-1.16-1.09,1,1,0,0,0-1,1.13A1,1,0,0,0,225.59,98.69Z" fill="#daa520"/><path d="M224.48,135.5a1,1,0,0,0,1,1.09,1.08,1.08,0,1,0,0-2.15A1,1,0,0,0,224.48,135.5Z" fill="#daa520"/><path d="M224.48,151.85a1,1,0,0,0,1.08,1.06,1,1,0,0,0,1.09-1.16,1,1,0,0,0-1.13-1A1,1,0,0,0,224.48,151.85Z" fill="#daa520"/><path d="M224.48,146.56c.09.69.47,1.09,1.11,1.07a1.08,1.08,0,1,0-.1-2.16A1,1,0,0,0,224.48,146.56Z" fill="#daa520"/><path d="M224.48,255c.08.69.45,1.09,1.1,1.08a1.08,1.08,0,1,0-.08-2.16A1,1,0,0,0,224.48,255Z" fill="#daa520"/><path d="M224.48,238.7a1,1,0,0,0,1.07,1.07,1.08,1.08,0,1,0,0-2.15A1,1,0,0,0,224.48,238.7Z" fill="#daa520"/><path d="M224.48,222.39c.09.69.47,1.09,1.11,1.06a1.08,1.08,0,1,0-.1-2.15A1,1,0,0,0,224.48,222.39Z" fill="#daa520"/><path d="M274.31,270.85a3,3,0,0,0,.6,0c.35-.06.93.25,1-.2s-.42-.79-.85-1a1.61,1.61,0,0,0-1.37-.11c-.54.2-1.18.54-1.1,1.08s.8.15,1.22.25A2.46,2.46,0,0,0,274.31,270.85Z" fill="#daa520"/><path d="M225.49,158.49c.74-.11,1.13-.45,1.18-1a1.05,1.05,0,0,0-1-1.22,1,1,0,0,0-1.12.85C224.5,157.79,225.35,157.94,225.49,158.49Z" fill="#daa520"/><path d="M225.63,91.38c-.61-.07-1.16-.08-1.14.68a1.08,1.08,0,1,0,2.16,0C226.66,91.3,226.12,91.29,225.63,91.38Z" fill="#daa520"/><path d="M267.27,270.81h3.41a1.6,1.6,0,0,0-1.65-1.3A1.74,1.74,0,0,0,267.27,270.81Z" fill="#daa520"/><path d="M265.15,270.8a1.76,1.76,0,0,0-3.34,0Z" fill="#daa520"/><path d="M219.08,222.43c.12.58.45.95,1,.89a.95.95,0,0,0-.1-1.89A1,1,0,0,0,219.08,222.43Z" fill="#daa520"/><path d="M219.08,119.22c.1.58.42,1,1,.92a.88.88,0,0,0,.89-1,.87.87,0,0,0-.93-.86A1,1,0,0,0,219.08,119.22Z" fill="#daa520"/><path d="M219.08,227.9c.09.58.4,1,1,.94a.95.95,0,0,0,0-1.89A.94.94,0,0,0,219.08,227.9Z" fill="#daa520"/><path d="M220,256c.59-.07,1-.37,1-1a.94.94,0,0,0-1.88,0C219.08,255.57,219.45,255.88,220,256Z" fill="#daa520"/><path d="M220.05,136.48c.59-.08,1-.39.94-1a.87.87,0,0,0-1-.91.86.86,0,0,0-.88.92C219.1,136.1,219.47,136.4,220.05,136.48Z" fill="#daa520"/><path d="M220.18,237.72c-.68.06-1.07.36-1.07,1a.95.95,0,0,0,1.89.07A1,1,0,0,0,220.18,237.72Z" fill="#daa520"/><path d="M220,96.63c-.57.12-.94.45-.88,1.05a.95.95,0,0,0,1.89-.1A1,1,0,0,0,220,96.63Z" fill="#daa520"/><path d="M219.09,124.78c.11.57.44.94,1,.88a.89.89,0,0,0,.86-1.06.87.87,0,0,0-1-.83A.94.94,0,0,0,219.09,124.78Z" fill="#daa520"/><path d="M219.08,249.52c.1.58.42,1,1,.92a.88.88,0,0,0,.88-1,.87.87,0,0,0-.94-.86C219.45,248.55,219.15,248.93,219.08,249.52Z" fill="#daa520"/><path d="M220,114.88c.6,0,1-.35,1-.95a.94.94,0,0,0-1.88-.08C219.06,114.45,219.43,114.77,220,114.88Z" fill="#daa520"/><path d="M220,147.54c.68-.09,1.06-.41,1-1a1,1,0,0,0-1.9,0C219.08,147.16,219.5,147.41,220,147.54Z" fill="#daa520"/><path d="M220,107.43c-.57.12-.94.45-.88,1a.95.95,0,0,0,1.89-.11C221,107.77,220.59,107.48,220,107.43Z" fill="#daa520"/><path d="M219.08,102.91c.1.58.42,1,1,.91a.95.95,0,0,0,0-1.89C219.45,101.94,219.15,102.32,219.08,102.91Z" fill="#daa520"/><path d="M220,264.84c-.57.12-.94.45-.88,1.05a.95.95,0,0,0,1.89-.1A1,1,0,0,0,220,264.84Z" fill="#daa520"/><path d="M220,131.21c.67-.08,1.05-.38,1-1a.95.95,0,0,0-1.89,0A1,1,0,0,0,220,131.21Z" fill="#daa520"/><path d="M219.07,140.93c.08.68.38,1.06,1,1a1,1,0,0,0,0-1.9A1,1,0,0,0,219.07,140.93Z" fill="#daa520"/><path d="M219.08,217.05c0,.61.35,1,1,1a.88.88,0,0,0,1-1,.86.86,0,0,0-.88-.93A.93.93,0,0,0,219.08,217.05Z" fill="#daa520"/><path d="M219.08,244.22c.09.58.4,1,1,.94a.89.89,0,0,0,.92-1,.87.87,0,0,0-.92-.88A.94.94,0,0,0,219.08,244.22Z" fill="#daa520"/><path d="M219.08,233.37c.06.59.35,1,1,1a.95.95,0,0,0,.08-1.89C219.52,232.43,219.2,232.79,219.08,233.37Z" fill="#daa520"/><path d="M220.06,259.55c-.64.13-1,.46-.95,1.06a.95.95,0,0,0,1.89-.1A1,1,0,0,0,220.06,259.55Z" fill="#daa520"/><path d="M290.64,213.58a29.35,29.35,0,0,0-1.82-2.92C288.13,212.24,288.82,213.39,290.64,213.58Z" fill="#daa520"/><path d="M259.5,270.79c-1-1.54-2.17-1.53-3,0Z" fill="#daa520"/><path d="M219.09,92.14a.91.91,0,0,0,1,.89.89.89,0,0,0,.91-.92c0-.64-.37-.77-.93-.76S219.11,91.41,219.09,92.14Z" fill="#daa520"/><path d="M251.17,270.82h2.94a1.29,1.29,0,0,0-1.27-1.07A1.57,1.57,0,0,0,251.17,270.82Z" fill="#daa520"/><path d="M294.33,221.39c-.67,1.34-.37,2.19,1.06,2.94A18,18,0,0,0,294.33,221.39Z" fill="#daa520"/><path d="M248.44,270.77c-.74-1.26-1.65-1.29-2.63,0Z" fill="#daa520"/><path d="M214.48,234.2c.53,0,.83-.27.83-.8a.71.71,0,0,0-.73-.76.78.78,0,0,0-.1,1.56Z" fill="#daa520"/><path d="M214.53,265a.74.74,0,0,0-.76.88.7.7,0,0,0,.81.67.78.78,0,0,0-.05-1.55Z" fill="#daa520"/><path d="M213.76,260.52a.77.77,0,0,0,1.54,0,.77.77,0,0,0-1.54,0Z" fill="#daa520"/><path d="M214.58,131a.72.72,0,0,0,.72-.88.69.69,0,0,0-.81-.67.78.78,0,1,0,.09,1.55Z" fill="#daa520"/><path d="M214.53,92.85a.7.7,0,0,0,.77-.73c0-.55-.28-.78-.83-.76s-.71.29-.7.76A.7.7,0,0,0,214.53,92.85Z" fill="#daa520"/><path d="M213.76,255a.72.72,0,0,0,.84.76.69.69,0,0,0,.7-.78.77.77,0,0,0-1.54,0Z" fill="#daa520"/><path d="M213.76,97.59a.77.77,0,0,0,1.54,0,.77.77,0,1,0-1.54,0Z" fill="#daa520"/><path d="M213.73,135.54a.75.75,0,0,0,.87.76.79.79,0,0,0-.08-1.58A.76.76,0,0,0,213.73,135.54Z" fill="#daa520"/><path d="M214.58,125.5a.73.73,0,0,0,.72-.89.7.7,0,0,0-.81-.67.72.72,0,0,0-.73.88A.73.73,0,0,0,214.58,125.5Z" fill="#daa520"/><path d="M214.58,250.27a.73.73,0,0,0,.72-.88.69.69,0,0,0-.81-.66.77.77,0,1,0,.09,1.54Z" fill="#daa520"/><path d="M214.54,103.65a.72.72,0,0,0,.76-.84.69.69,0,0,0-.78-.7.71.71,0,0,0-.75.84A.7.7,0,0,0,214.54,103.65Z" fill="#daa520"/><path d="M240.56,270.85c.68,0,1.15,0,1.61,0s.84.24.87-.23-.48-.6-.86-.67A1.4,1.4,0,0,0,240.56,270.85Z" fill="#daa520"/><path d="M214.59,113.14c-.53,0-.83.27-.82.79a.68.68,0,0,0,.72.75.7.7,0,0,0,.81-.78A.71.71,0,0,0,214.59,113.14Z" fill="#daa520"/><path d="M213.76,119.21a.71.71,0,0,0,.85.75.69.69,0,0,0,.69-.78.77.77,0,0,0-1.54,0Z" fill="#daa520"/><path d="M214.56,243.44a.71.71,0,0,0-.79.79.69.69,0,0,0,.72.75.77.77,0,1,0,.07-1.54Z" fill="#daa520"/><path d="M213.74,227.85c0,.52.27.83.81.83a.7.7,0,0,0,.76-.74.71.71,0,0,0-.79-.82A.73.73,0,0,0,213.74,227.85Z" fill="#daa520"/><path d="M213.76,108.34c0,.53.26.83.79.82a.69.69,0,0,0,.75-.72.77.77,0,0,0-1.54-.1Z" fill="#daa520"/><path d="M213.75,238.66c0,.54.3.83.83.81a.71.71,0,0,0,.73-.76.72.72,0,0,0-.82-.79A.73.73,0,0,0,213.75,238.66Z" fill="#daa520"/><path d="M219.69,212.38c0,.25.26.17.4.16a.91.91,0,0,0,.93-1c0-.27-.12-.7-.36-.61C220.09,211.17,219.93,211.79,219.69,212.38Z" fill="#daa520"/><path d="M208.6,92.05a.66.66,0,0,0,.56.66.61.61,0,0,0,.73-.6.6.6,0,0,0-.55-.66C208.93,91.39,208.7,91.66,208.6,92.05Z" fill="#daa520"/><path d="M304.71,92.5a2,2,0,0,0,2,1.78Z" fill="#daa520"/><path d="M209.28,259.88a.66.66,0,0,0-.66.56.62.62,0,0,0,.6.73.59.59,0,0,0,.66-.55C209.94,260.21,209.67,260,209.28,259.88Z" fill="#daa520"/><path d="M208.6,97.55a.67.67,0,0,0,.58.68.63.63,0,1,0,.15-1.26C208.91,96.92,208.7,97.21,208.6,97.55Z" fill="#daa520"/><path d="M235.26,270.82h2.16C236.8,269.76,236,269.75,235.26,270.82Z" fill="#daa520"/><path d="M208.6,265.8a.66.66,0,0,0,.59.64.61.61,0,0,0,.7-.62.6.6,0,0,0-.57-.64C208.91,265.14,208.68,265.41,208.6,265.8Z" fill="#daa520"/><path d="M209.28,103.77c.39-.09.66-.33.61-.73a.61.61,0,0,0-.66-.56.62.62,0,0,0-.61.72A.66.66,0,0,0,209.28,103.77Z" fill="#daa520"/><path d="M288.54,152.09c.68-.52.87-1.36,1.47-2.13C288.77,150.46,288.57,150.78,288.54,152.09Z" fill="#daa520"/><path d="M229.83,270.8h2C231.06,269.9,230.73,269.89,229.83,270.8Z" fill="#daa520"/><path d="M226.6,270.78c-1.07-.68-1.07-.68-1.95,0Z" fill="#daa520"/><path d="M294,141.64l1-2.46A2.3,2.3,0,0,0,294,141.64Z" fill="#daa520"/><path d="M214.34,223.31c1-.29,1.21-.71.91-1.43C214.57,222.11,214.87,222.78,214.34,223.31Z" fill="#daa520"/><path d="M203.82,260.12a.43.43,0,0,0-.48.33.41.41,0,1,0,.8.16C204.2,260.33,204,260.21,203.82,260.12Z" fill="#daa520"/><path d="M203.32,103.17c.1.23.24.43.52.34a.39.39,0,0,0,.3-.44c-.06-.24-.23-.43-.51-.34A.43.43,0,0,0,203.32,103.17Z" fill="#daa520"/><path d="M203.32,265.76a.44.44,0,0,0,.31.44c.28.09.45-.1.51-.34a.39.39,0,0,0-.3-.44C203.56,265.33,203.42,265.53,203.32,265.76Z" fill="#daa520"/><path d="M203.31,97.61c.08.26.24.45.5.39a.39.39,0,0,0,.33-.42c0-.26-.22-.44-.48-.38A.45.45,0,0,0,203.31,97.61Z" fill="#daa520"/><path d="M219.14,270.82h1.73C220.31,270.26,219.88,270.27,219.14,270.82Z" fill="#daa520"/><path d="M302.2,106.35a2.1,2.1,0,0,0-1.64,0A2.56,2.56,0,0,0,302.2,106.35Z" fill="#daa520"/><path d="M220.32,150.85c0,.65.61.69.55,1.16C221.13,151.45,220.84,151.16,220.32,150.85Z" fill="#daa520"/><rect x="220.17" y="253.54" width="102.09" height="10.87" rx="4.74" fill="#e5e5e5"/><path d="M317.52,266.41H224.9a6.75,6.75,0,0,1-6.73-6.74v-1.4a6.75,6.75,0,0,1,6.73-6.74h92.62a6.75,6.75,0,0,1,6.74,6.74v1.4A6.75,6.75,0,0,1,317.52,266.41ZM224.9,255.53a2.74,2.74,0,0,0-2.73,2.74v1.4a2.74,2.74,0,0,0,2.73,2.74h92.62a2.74,2.74,0,0,0,2.74-2.74v-1.4a2.74,2.74,0,0,0-2.74-2.74Z" fill="#231f20"/><rect x="220.17" y="89.11" width="102.09" height="10.87" rx="4.74" fill="#e5e5e5"/><path d="M317.52,102H224.9a6.74,6.74,0,0,1-6.73-6.74V93.85a6.74,6.74,0,0,1,6.73-6.74h92.62a6.74,6.74,0,0,1,6.74,6.74v1.39A6.74,6.74,0,0,1,317.52,102ZM224.9,91.11a2.74,2.74,0,0,0-2.73,2.74v1.39A2.74,2.74,0,0,0,224.9,98h92.62a2.74,2.74,0,0,0,2.74-2.74V93.85a2.74,2.74,0,0,0-2.74-2.74Z" fill="#231f20"/><path d="M313.66,100.3v10.22a67.72,67.72,0,0,1-19.84,47.9L282.94,169.3a10.69,10.69,0,0,0,0,15.12l10.95,11a67.72,67.72,0,0,1,19.78,47.84v10.18h-84.9V243.24a67.77,67.77,0,0,1,19.78-47.84l11-11a10.7,10.7,0,0,0,0-15.12L248.6,158.42a67.76,67.76,0,0,1-19.84-47.9V100.3Z" fill="#fff"/><path d="M313.66,255.42h-84.9a2,2,0,0,1-2-2V243.24A69.28,69.28,0,0,1,247.13,194l10.95-11a8.71,8.71,0,0,0,0-12.29l-10.88-10.89a69.24,69.24,0,0,1-20.43-49.31V100.3a2,2,0,0,1,2-2h84.9a2,2,0,0,1,2,2v10.22a69.27,69.27,0,0,1-20.42,49.31l-10.89,10.89a8.71,8.71,0,0,0,0,12.29l11,11a69.31,69.31,0,0,1,20.36,49.25v10.18A2,2,0,0,1,313.66,255.42Zm-82.9-4h80.9v-8.18a65.33,65.33,0,0,0-19.19-46.42l-11-11a12.72,12.72,0,0,1,0-18L292.41,157a65.31,65.31,0,0,0,19.25-46.48V102.3h-80.9v8.22A65.31,65.31,0,0,0,250,157l10.89,10.89a12.71,12.71,0,0,1,0,18l-11,11a65.3,65.3,0,0,0-19.2,46.42Z" fill="#231f20"/><path d="M274.31,175.49a9.86,9.86,0,0,1,2.9-7l10.08-10.08a62.52,62.52,0,0,0,9.22-11.74,1.47,1.47,0,0,0-1.07-2.23l-51.61-6.08a1.47,1.47,0,0,0-1.5,2.08,62.66,62.66,0,0,0,12.54,18L265,168.5a9.86,9.86,0,0,1,2.9,7h0a3.24,3.24,0,0,0,6.46,0Z" fill="#daa520"/><path d="M233.87,245.89h0a3.7,3.7,0,0,0,3.7,3.7h67.28a3.71,3.71,0,0,0,3.71-3.7h0a3.7,3.7,0,0,0-2.51-3.51l-16.4-5.6a56.93,56.93,0,0,0-36.87,0l-16.41,5.6A3.7,3.7,0,0,0,233.87,245.89Z" fill="#daa520"/><path d="M195.56,115.72H76.74a2,2,0,1,1,0-4H195.56a2,2,0,0,1,0,4Z" fill="#daa520"/><path d="M212.06,157.32H93.24a2,2,0,0,1,0-4H212.06a2,2,0,0,1,0,4Z" fill="#daa520"/><path d="M218.18,198.93H99.36a2,2,0,0,1,0-4H218.18a2,2,0,0,1,0,4Z" fill="#daa520"/><path d="M192.56,240.53H73.74a2,2,0,1,1,0-4H192.56a2,2,0,0,1,0,4Z" fill="#daa520"/></svg>