<svg xmlns="http://www.w3.org/2000/svg" viewBox="0 0 396 360" width="396" height="360"><path d="m126.93 192.51h-42.44l-26.24-15.2h94.92z" fill="#daa520"/><path d="m126.93 194h-42.44a1.53 1.53 0 0 1 -.75-.2l-26.24-15.19a1.5 1.5 0 0 1 .75-2.8h94.92a1.5 1.5 0 0 1 .76 2.8l-26.25 15.2a1.48 1.48 0 0 1 -.75.19zm-42-3h41.63l21.06-12.2h-83.78z" fill="#231f20"/><path d="m80.46 132 25.25-57.25 25.29 57.25h2.87l-26.96-61a1.31 1.31 0 0 0 -2.4 0l-26.92 61z" fill="#231f20"/><path d="m153.58 176.78-6.51-14.78v6.5l3.3 7.48h-89.31l2-4.51v-6.47l-5.2 11.79a1.31 1.31 0 0 0 1.2 1.84h93.34a1.3 1.3 0 0 0 1.1-.59 1.32 1.32 0 0 0 .08-1.26z" fill="#231f20"/><path d="m310.63 236.46h-42.44l-26.24-15.2h94.92z" fill="#daa520"/><path d="m310.63 238h-42.44a1.48 1.48 0 0 1 -.75-.2l-26.25-15.2a1.5 1.5 0 0 1 .76-2.8h94.92a1.5 1.5 0 0 1 .75 2.8l-26.24 15.2a1.53 1.53 0 0 1 -.75.2zm-42-3h41.63l21.06-12.2h-83.79z" fill="#231f20"/><path d="m282.11 135.27 7.3-16.55 7.3 16.55h2.87l-9-20.33a1.31 1.31 0 0 0 -2.4 0l-9 20.33z" fill="#231f20"/><path d="m261.28 175.97h2.87l10.21-23.15v-6.5z" fill="#231f20"/><path d="m337.28 220.73-5.86-13.28v6.55l2.64 6h-89.31l2.64-6v-6.5l-5.85 13.28a1.31 1.31 0 0 0 1.2 1.84h93.34a1.31 1.31 0 0 0 1.2-1.84z" fill="#231f20"/><path d="m107.03 135.3h36.76v36.76h-36.76z" fill="#d8ad4c"/><path d="m143.79 173.56h-36.79a1.5 1.5 0 0 1 -1.5-1.5v-36.76a1.5 1.5 0 0 1 1.5-1.5h36.76a1.5 1.5 0 0 1 1.5 1.5v36.76a1.5 1.5 0 0 1 -1.47 1.5zm-35.26-3h33.76v-33.76h-33.76z" fill="#231f20"/><path d="m107.03 135.3h36.76v36.76h-36.76z" fill="#d8ad4c"/><path d="m143.79 173.56h-36.79a1.5 1.5 0 0 1 -1.5-1.5v-36.76a1.5 1.5 0 0 1 1.5-1.5h36.76a1.5 1.5 0 0 1 1.5 1.5v36.76a1.5 1.5 0 0 1 -1.47 1.5zm-35.26-3h33.76v-33.76h-33.76z" fill="#231f20"/><path d="m114.27 142.73 22.28 21.91" fill="#daa520"/><path d="m136.55 166.14a1.52 1.52 0 0 1 -1.05-.43l-22.29-21.91a1.5 1.5 0 0 1 2.11-2.14l22.28 21.91a1.5 1.5 0 0 1 -1 2.57z" fill="#fff"/><path d="m136.55 142.73-22.28 21.91" fill="#daa520"/><path d="m114.27 166.14a1.48 1.48 0 0 1 -1.07-.45 1.5 1.5 0 0 1 0-2.12l22.29-21.91a1.5 1.5 0 1 1 2.1 2.14l-22.28 21.91a1.52 1.52 0 0 1 -1.04.43z" fill="#fff"/><path d="m66.33 135.3h36.76v36.76h-36.76z" fill="#daa520"/><path d="m103.09 173.56h-36.76a1.5 1.5 0 0 1 -1.5-1.5v-36.76a1.5 1.5 0 0 1 1.5-1.5h36.76a1.5 1.5 0 0 1 1.5 1.5v36.76a1.5 1.5 0 0 1 -1.5 1.5zm-35.26-3h33.76v-33.76h-33.76z" fill="#231f20"/><path d="m95.85 166.14a1.52 1.52 0 0 1 -1-.43l-22.34-21.91a1.5 1.5 0 0 1 2.11-2.14l22.28 21.91a1.5 1.5 0 0 1 -1.05 2.57z" fill="#fff"/><path d="m73.57 166.14a1.48 1.48 0 0 1 -1.07-.45 1.5 1.5 0 0 1 0-2.12l22.3-21.91a1.5 1.5 0 1 1 2.1 2.14l-22.28 21.91a1.52 1.52 0 0 1 -1.05.43z" fill="#fff"/><path d="m314.47 176.81h-36.76a1.5 1.5 0 0 1 -1.5-1.5v-36.76a1.5 1.5 0 0 1 1.5-1.5h36.76a1.5 1.5 0 0 1 1.5 1.5v36.76a1.5 1.5 0 0 1 -1.5 1.5zm-35.26-3h33.79v-33.76h-33.79z" fill="#231f20"/><path d="m292.26 169.38a1.49 1.49 0 0 1 -1.2-.6l-7.42-9.88a1.5 1.5 0 0 1 2.41-1.8l6.16 8.21 13.89-20.19a1.5 1.5 0 0 1 2.47 1.7l-15.08 21.91a1.48 1.48 0 0 1 -1.2.65z" fill="#daa520"/><path d="m328.2 217.51h-36.76a1.5 1.5 0 0 1 -1.5-1.5v-36.76a1.5 1.5 0 0 1 1.5-1.5h36.76a1.5 1.5 0 0 1 1.5 1.5v36.75a1.5 1.5 0 0 1 -1.5 1.51zm-35.26-3h33.76v-33.76h-33.76z" fill="#231f20"/><path d="m306 210.08a1.49 1.49 0 0 1 -1.2-.6l-7.41-9.88a1.5 1.5 0 0 1 2.4-1.8l6.16 8.21 13.89-20.19a1.5 1.5 0 0 1 2.47 1.71l-15.07 21.91a1.53 1.53 0 0 1 -1.21.64z" fill="#daa520"/><path d="m287.5 217.51h-36.76a1.5 1.5 0 0 1 -1.5-1.5v-36.76a1.5 1.5 0 0 1 1.5-1.5h36.76a1.5 1.5 0 0 1 1.5 1.5v36.75a1.5 1.5 0 0 1 -1.5 1.51zm-35.26-3h33.76v-33.76h-33.76z" fill="#231f20"/><g fill="#daa520"><path d="m265.29 210.08a1.49 1.49 0 0 1 -1.2-.6l-7.41-9.88a1.5 1.5 0 0 1 2.4-1.8l6.16 8.21 13.89-20.19a1.5 1.5 0 0 1 2.47 1.71l-15.07 21.91a1.53 1.53 0 0 1 -1.21.64z"/><path d="m84.77 76.11a2.42 2.42 0 1 1 .08-4.84 2.38 2.38 0 0 1 2.36 2.46 2.36 2.36 0 0 1 -2.44 2.38z"/><path d="m91.76 76.1a2.41 2.41 0 1 1 2.37-2.46 2.41 2.41 0 0 1 -2.37 2.46z"/><path d="m98.48 71.32a2.38 2.38 0 1 1 -2.41 2.31 2.42 2.42 0 0 1 2.41-2.31z"/><path d="m107.51 73.69a2.34 2.34 0 1 1 -2.28-2.33 2.39 2.39 0 0 1 2.28 2.33z"/><path d="m118.85 78.44a2.22 2.22 0 1 1 -2.21 2.15 2.17 2.17 0 0 1 2.21-2.15z"/><path d="m114.16 80.69c0 1-.92 2.15-1.74 2.12-1.81-.08-2.8-.84-2.8-2.16a2.27 2.27 0 1 1 4.54 0z"/><path d="m127.75 80.65a2.18 2.18 0 1 1 -2.21-2.17 2.15 2.15 0 0 1 2.21 2.17z"/><path d="m134.44 80.62a2.16 2.16 0 1 1 -2.15-2.12 2.18 2.18 0 0 1 2.15 2.12z"/><path d="m141.37 87.32a2 2 0 0 1 -1.42 2c-1.5.11-2.83-.8-2.83-1.92a2.13 2.13 0 0 1 4.25-.05z"/><path d="m148 291.08a2.07 2.07 0 1 1 -2.1-2.05 2.11 2.11 0 0 1 2.1 2.05z"/><path d="m146 282.07a2.07 2.07 0 1 1 -2.1 2 2.12 2.12 0 0 1 2.1-2z"/><path d="m141.37 80.6a2.19 2.19 0 0 1 -2.09 2.18 2.14 2.14 0 0 1 -2.14-2.11c0-.89.39-1.74 1.32-1.89 1.44-.23 2.88.77 2.91 1.82z"/><path d="m145.93 89.44a2.07 2.07 0 1 1 2.11-2 2.11 2.11 0 0 1 -2.11 2z"/><path d="m84.42 66c.64.13 1.51.33 2.39.46.51.08.39.42.38.71a2.37 2.37 0 0 1 -2.26 2.21 2.43 2.43 0 0 1 -2.55-1.89c-.14-.85.62-1.49 2.04-1.49z"/><path d="m114.17 73.72a2.2 2.2 0 0 1 -1.52 2.11 2.15 2.15 0 0 1 -2.48-.66 2.25 2.25 0 0 1 -.28-2.56c.2-.45.46-.5.9-.37a18.25 18.25 0 0 0 2.78.7c.6.06.56.42.6.78z"/><path d="m152.66 289.11a2 2 0 1 1 -2 2 2 2 0 0 1 2-2z"/><path d="m154.68 284.14a2 2 0 1 1 -1.94-2 2 2 0 0 1 1.94 2z"/><path d="m154.68 87.42a2 2 0 1 1 -1.89-2 2 2 0 0 1 1.89 2z"/><path d="m166.22 289.19a1.91 1.91 0 1 1 -2 1.79 1.94 1.94 0 0 1 2-1.79z"/><path d="m161.35 291.2a1.95 1.95 0 1 1 -1.85-2.05 1.9 1.9 0 0 1 1.85 2.05z"/><path d="m166.13 282.23a1.92 1.92 0 1 1 -1.92 1.88 1.93 1.93 0 0 1 1.92-1.88z"/><path d="m159.37 282.2a1.95 1.95 0 1 1 -1.91 2 1.9 1.9 0 0 1 1.91-2z"/><path d="m168.28 87.32a1.92 1.92 0 1 1 -3.83 0 1.92 1.92 0 0 1 3.83 0z"/><path d="m159.41 89.32a2 2 0 1 1 1.94-1.95 1.9 1.9 0 0 1 -1.94 1.95z"/><path d="m173.05 289.22a1.89 1.89 0 1 1 -1.85 1.85 2 2 0 0 1 1.85-1.85z"/><path d="m175 284.17a1.88 1.88 0 1 1 -1.79-1.91 2 2 0 0 1 1.79 1.91z"/><path d="m173.12 92.21a1.88 1.88 0 1 1 -1.92 1.79 2 2 0 0 1 1.92-1.79z"/><path d="m168.28 94.24c-.14.63-.31 1.5-1.25 1.49-1.8 0-2.6-.61-2.58-1.68a1.93 1.93 0 0 1 1.94-1.87 2 2 0 0 1 1.89 2.06z"/><path d="m179.74 177.49a1.84 1.84 0 0 1 -1.75-1.9 1.81 1.81 0 1 1 1.75 1.9z"/><path d="m179.81 187.31a1.81 1.81 0 1 1 -1.82 1.83 1.83 1.83 0 0 1 1.82-1.83z"/><path d="m181.61 291.09a1.81 1.81 0 1 1 -1.85-1.79 1.83 1.83 0 0 1 1.85 1.79z"/><path d="m179.8 72.13a1.81 1.81 0 1 1 -1.8 1.87 1.82 1.82 0 0 1 1.8-1.87z"/><path d="m181.61 284.16a1.81 1.81 0 1 1 -1.82-1.82 1.82 1.82 0 0 1 1.82 1.82z"/><path d="m181.61 87.34a1.81 1.81 0 1 1 -1.88-1.77 1.83 1.83 0 0 1 1.88 1.77z"/><path d="m181.61 114.46a1.81 1.81 0 0 1 -3.62.12 1.81 1.81 0 1 1 3.62-.12z"/><path d="m181.61 277.41a1.81 1.81 0 1 1 -1.86-1.79 1.81 1.81 0 0 1 1.86 1.79z"/><path d="m181.61 270.74a1.81 1.81 0 1 1 -1.81-1.84 1.82 1.82 0 0 1 1.81 1.84z"/><path d="m181.61 263.79a1.81 1.81 0 1 1 -1.79-1.85 1.82 1.82 0 0 1 1.79 1.85z"/><path d="m179.77 255.22a1.81 1.81 0 1 1 -1.78 1.87 1.82 1.82 0 0 1 1.78-1.87z"/><path d="m181.61 250.26a1.81 1.81 0 1 1 -1.89-1.76 1.84 1.84 0 0 1 1.89 1.76z"/><path d="m181.61 94a1.81 1.81 0 1 1 -1.9-1.74 1.83 1.83 0 0 1 1.9 1.74z"/><path d="m179.82 245.4a1.81 1.81 0 1 1 1.79-1.86 1.83 1.83 0 0 1 -1.79 1.86z"/><path d="m179.75 234.83a1.81 1.81 0 1 1 0 3.61 1.84 1.84 0 0 1 -1.8-1.73 1.82 1.82 0 0 1 1.8-1.88z"/><path d="m179.75 228.11a1.81 1.81 0 1 1 -1.75 1.89 1.82 1.82 0 0 1 1.75-1.89z"/><path d="m179.75 221.39a1.81 1.81 0 1 1 -1.76 1.89 1.83 1.83 0 0 1 1.76-1.89z"/><path d="m181.61 101.08a1.81 1.81 0 1 1 -1.81-1.83 1.83 1.83 0 0 1 1.81 1.83z"/><path d="m181.61 216.21a1.81 1.81 0 1 1 -1.86-1.78 1.83 1.83 0 0 1 1.86 1.78z"/><path d="m181.61 121.46a1.81 1.81 0 1 1 -3.62-.08 1.81 1.81 0 0 1 3.62.08z"/><path d="m179.77 207.71a1.81 1.81 0 0 1 1.84 1.8 1.81 1.81 0 1 1 -1.84-1.8z"/><path d="m181.61 202.82a1.81 1.81 0 1 1 -1.81-1.82 1.83 1.83 0 0 1 1.81 1.82z"/><path d="m181.61 196.07a1.81 1.81 0 1 1 -1.85-1.8 1.82 1.82 0 0 1 1.85 1.8z"/><path d="m181.61 182.4a1.81 1.81 0 1 1 -1.84-1.81 1.83 1.83 0 0 1 1.84 1.81z"/><path d="m178 168.87a1.81 1.81 0 1 1 1.75 1.9 1.82 1.82 0 0 1 -1.75-1.9z"/><path d="m179.75 160.2a1.81 1.81 0 1 1 -1.76 1.88 1.82 1.82 0 0 1 1.76-1.88z"/><path d="m181.61 107.78a1.81 1.81 0 1 1 -1.83-1.82 1.83 1.83 0 0 1 1.83 1.82z"/><path d="m179.82 153.48a1.81 1.81 0 1 1 -1.82 1.82 1.82 1.82 0 0 1 1.82-1.82z"/><path d="m179.81 150.37a1.81 1.81 0 1 1 1.8-1.85 1.82 1.82 0 0 1 -1.8 1.85z"/><path d="m178 141.66a1.81 1.81 0 1 1 1.9 1.75 1.83 1.83 0 0 1 -1.9-1.75z"/><path d="m179.75 133.08a1.81 1.81 0 1 1 -1.75 1.92 1.83 1.83 0 0 1 1.75-1.92z"/><path d="m179.8 126.36a1.81 1.81 0 1 1 -1.81 1.83 1.82 1.82 0 0 1 1.81-1.83z"/><path d="m107.51 80.65c0 .62-.14 1-.94.75a16.36 16.36 0 0 0 -3.25-.77c-.66 0-.39-.57-.27-.91a2.32 2.32 0 0 1 2.54-1.35 2.37 2.37 0 0 1 1.92 2.28z"/><path d="m145.91 298.54a3.46 3.46 0 0 1 -.72 0c-.4-.07-.93.28-1.18-.22a1.59 1.59 0 0 1 .22-1.58 2 2 0 0 1 3.26-.28 1.74 1.74 0 0 1 .47 1.75c-.24.7-.89.22-1.34.33a2.81 2.81 0 0 1 -.71 0z"/><path d="m186.53 211.25a1.74 1.74 0 1 1 1.72-1.74 1.68 1.68 0 0 1 -1.72 1.74z"/><path d="m195.17 223.19a1.69 1.69 0 1 1 -1.63-1.69 1.68 1.68 0 0 1 1.63 1.69z"/><path d="m193.53 248.62a1.69 1.69 0 1 1 -1.74 1.58 1.68 1.68 0 0 1 1.74-1.58z"/><path d="m195.17 291.12a1.69 1.69 0 1 1 -3.38 0 1.69 1.69 0 1 1 3.38 0z"/><path d="m188.25 114.43a1.73 1.73 0 1 1 -1.78-1.68 1.67 1.67 0 0 1 1.78 1.68z"/><path d="m195.17 114.53a1.69 1.69 0 1 1 -1.59-1.73 1.68 1.68 0 0 1 1.59 1.73z"/><path d="m188.25 291.06a1.73 1.73 0 1 1 -1.78-1.69 1.68 1.68 0 0 1 1.78 1.69z"/><path d="m188.49 67a1.73 1.73 0 1 1 -1.74-1.72 1.68 1.68 0 0 1 1.74 1.72z"/><path d="m188.25 250.31a1.73 1.73 0 1 1 -1.73-1.74 1.66 1.66 0 0 1 1.73 1.74z"/><path d="m193.46 285.84a1.7 1.7 0 1 1 1.71-1.62 1.68 1.68 0 0 1 -1.71 1.62z"/><path d="m188.25 284.11a1.73 1.73 0 1 1 -1.76-1.7 1.68 1.68 0 0 1 1.76 1.7z"/><path d="m193.49 79a1.7 1.7 0 1 1 -1.7 1.63 1.68 1.68 0 0 1 1.7-1.63z"/><path d="m195.17 243.56a1.69 1.69 0 1 1 -1.66-1.66 1.67 1.67 0 0 1 1.66 1.66z"/><path d="m188.49 74a1.73 1.73 0 1 1 -1.68-1.77 1.67 1.67 0 0 1 1.68 1.77z"/><path d="m186.56 119.71a1.74 1.74 0 1 1 -1.77 1.7 1.68 1.68 0 0 1 1.77-1.7z"/><path d="m195.17 121.4a1.69 1.69 0 1 1 -1.68-1.64 1.68 1.68 0 0 1 1.68 1.64z"/><path d="m186.48 241.86a1.73 1.73 0 1 1 -1.69 1.77 1.68 1.68 0 0 1 1.69-1.77z"/><path d="m185 94a1.73 1.73 0 1 1 1.63 1.83 1.69 1.69 0 0 1 -1.63-1.83z"/><path d="m193.46 234.94a1.69 1.69 0 1 1 -1.67 1.65 1.68 1.68 0 0 1 1.67-1.65z"/><path d="m195.17 73.92a1.69 1.69 0 1 1 -1.65-1.68 1.68 1.68 0 0 1 1.65 1.68z"/><path d="m186.56 129.9a1.74 1.74 0 1 1 1.69-1.77 1.67 1.67 0 0 1 -1.69 1.77z"/><path d="m193.44 126.48a1.69 1.69 0 1 1 -1.65 1.67 1.68 1.68 0 0 1 1.65-1.67z"/><path d="m186.71 85.64a1.73 1.73 0 1 1 -1.71 1.78 1.68 1.68 0 0 1 1.71-1.78z"/><path d="m186.52 133.15a1.74 1.74 0 1 1 -1.73 1.74 1.68 1.68 0 0 1 1.73-1.74z"/><path d="m195.17 134.89a1.69 1.69 0 1 1 -1.63-1.7 1.68 1.68 0 0 1 1.63 1.7z"/><path d="m186.52 238.37a1.74 1.74 0 1 1 1.73-1.74 1.68 1.68 0 0 1 -1.73 1.74z"/><path d="m186.53 143.34a1.74 1.74 0 1 1 1.72-1.74 1.68 1.68 0 0 1 -1.72 1.74z"/><path d="m195.17 141.6a1.69 1.69 0 1 1 -1.64-1.69 1.68 1.68 0 0 1 1.64 1.69z"/><path d="m195.17 107.79a1.69 1.69 0 1 1 -1.61-1.71 1.67 1.67 0 0 1 1.61 1.71z"/><path d="m186.51 146.83a1.74 1.74 0 1 1 -1.72 1.74 1.67 1.67 0 0 1 1.72-1.74z"/><path d="m195.17 148.53a1.69 1.69 0 1 1 -1.67-1.66 1.68 1.68 0 0 1 1.67 1.66z"/><path d="m186.57 109.5a1.73 1.73 0 1 1 1.68-1.78 1.67 1.67 0 0 1 -1.68 1.78z"/><path d="m188.25 155.32a1.73 1.73 0 1 1 -1.69-1.77 1.68 1.68 0 0 1 1.69 1.77z"/><path d="m195.17 155.24a1.69 1.69 0 1 1 -1.67-1.65 1.67 1.67 0 0 1 1.67 1.65z"/><path d="m195.17 277.44a1.69 1.69 0 1 1 -1.62-1.71 1.68 1.68 0 0 1 1.62 1.71z"/><path d="m184.79 162a1.73 1.73 0 1 1 1.71 1.76 1.68 1.68 0 0 1 -1.71-1.76z"/><path d="m193.46 160.31a1.69 1.69 0 1 1 -1.67 1.65 1.68 1.68 0 0 1 1.67-1.65z"/><path d="m186.51 275.69a1.74 1.74 0 1 1 -1.72 1.74 1.68 1.68 0 0 1 1.72-1.74z"/><path d="m188.25 169a1.73 1.73 0 1 1 -1.74-1.72 1.68 1.68 0 0 1 1.74 1.72z"/><path d="m195.17 168.92a1.69 1.69 0 1 1 -1.68-1.65 1.67 1.67 0 0 1 1.68 1.65z"/><path d="m195.17 87.33a1.69 1.69 0 1 1 -1.67-1.65 1.67 1.67 0 0 1 1.67 1.65z"/><path d="m184.79 175.58a1.73 1.73 0 1 1 1.63 1.83 1.67 1.67 0 0 1 -1.63-1.83z"/><path d="m193.43 174a1.69 1.69 0 1 1 -1.64 1.68 1.67 1.67 0 0 1 1.64-1.68z"/><path d="m193.49 269a1.7 1.7 0 1 1 -1.7 1.62 1.69 1.69 0 0 1 1.7-1.62z"/><path d="m186.53 184.13a1.74 1.74 0 1 1 1.72-1.74 1.67 1.67 0 0 1 -1.72 1.74z"/><path d="m193.42 180.71a1.69 1.69 0 1 1 -1.63 1.69 1.68 1.68 0 0 1 1.63-1.69z"/><path d="m186.55 269a1.74 1.74 0 1 1 -1.76 1.71 1.68 1.68 0 0 1 1.76-1.71z"/><path d="m188.25 189.11a1.73 1.73 0 1 1 -1.74-1.73 1.67 1.67 0 0 1 1.74 1.73z"/><path d="m195.17 189.17a1.69 1.69 0 1 1 -1.58-1.74 1.68 1.68 0 0 1 1.58 1.74z"/><path d="m195.17 263.77a1.69 1.69 0 1 1 -1.61-1.71 1.68 1.68 0 0 1 1.61 1.71z"/><path d="m186.49 194.34a1.74 1.74 0 1 1 -1.7 1.77 1.68 1.68 0 0 1 1.7-1.77z"/><path d="m195.17 196.07a1.69 1.69 0 1 1 -1.64-1.68 1.68 1.68 0 0 1 1.64 1.68z"/><path d="m188.25 263.77a1.73 1.73 0 1 1 -1.71-1.76 1.68 1.68 0 0 1 1.71 1.76z"/><path d="m188.25 202.82a1.73 1.73 0 1 1 -1.71-1.76 1.68 1.68 0 0 1 1.71 1.76z"/><path d="m195.17 202.77a1.69 1.69 0 1 1 -1.66-1.67 1.69 1.69 0 0 1 1.66 1.67z"/><path d="m195.17 94.12a1.69 1.69 0 1 1 -1.6-1.72 1.67 1.67 0 0 1 1.6 1.72z"/><path d="m195.17 101.08a1.69 1.69 0 1 1 -1.6-1.72 1.67 1.67 0 0 1 1.6 1.72z"/><path d="m195.17 209.57a1.69 1.69 0 1 1 -1.57-1.74 1.67 1.67 0 0 1 1.57 1.74z"/><path d="m188.49 101.05a1.73 1.73 0 1 1 -1.73-1.73 1.68 1.68 0 0 1 1.73 1.73z"/><path d="m186.47 214.74a1.74 1.74 0 1 1 -1.68 1.78 1.68 1.68 0 0 1 1.68-1.78z"/><path d="m193.51 218.17a1.7 1.7 0 1 1 1.66-1.66 1.68 1.68 0 0 1 -1.66 1.66z"/><path d="m191.79 256.93a1.69 1.69 0 0 1 3.38.19 1.69 1.69 0 1 1 -3.38-.19z"/><path d="m186.47 221.46a1.74 1.74 0 1 1 -1.68 1.78 1.68 1.68 0 0 1 1.68-1.78z"/><path d="m188.25 257a1.73 1.73 0 1 1 -1.78-1.69 1.67 1.67 0 0 1 1.78 1.69z"/><path d="m186.81 78.92a1.73 1.73 0 1 1 -1.81 1.69 1.69 1.69 0 0 1 1.81-1.69z"/><path d="m188.25 230a1.73 1.73 0 1 1 -1.68-1.78 1.68 1.68 0 0 1 1.68 1.78z"/><path d="m195.17 229.92a1.69 1.69 0 1 1 -1.63-1.7 1.67 1.67 0 0 1 1.63 1.7z"/><path d="m181.61 80.64a1.76 1.76 0 0 1 -1.06 1.65 1.69 1.69 0 0 1 -1.9-.26c-.4-.37-.92-.79 0-1.17.6-.24.22-.7 0-.9-.5-.47-.16-.67.18-.86a1.75 1.75 0 0 1 1.82 0 1.77 1.77 0 0 1 .96 1.54z"/><path d="m152.59 298.54a2.4 2.4 0 0 1 -.6 0c-.42-.11-1 .34-1.24-.31a1.75 1.75 0 0 1 .39-1.68 2 2 0 0 1 3-.12 1.76 1.76 0 0 1 .52 1.75c-.21.75-.88.24-1.33.36a2.8 2.8 0 0 1 -.74 0z"/><path d="m159.35 298.54h-.71c-1.24 0-1.56-.58-.95-1.67a2 2 0 0 1 3-.56 1.71 1.71 0 0 1 .64 1.91c-.21.66-.89.21-1.34.31a2.4 2.4 0 0 1 -.64.01z"/><path d="m166.06 298.54a4 4 0 0 1 -.6 0c-.4-.07-1 .25-1.18-.27a1.56 1.56 0 0 1 .24-1.48 1.88 1.88 0 0 1 2.82-.43 1.7 1.7 0 0 1 .65 1.81c-.2.72-.88.26-1.34.37a2.91 2.91 0 0 1 -.59 0z"/><path d="m146 276.94a5.73 5.73 0 0 1 .83 0c.4.07 1-.27 1.18.25a1.52 1.52 0 0 1 -.37 1.45 2 2 0 0 1 -3.64-.64c-.23-.71-.18-1.19.76-1.08.4.08.81.02 1.24.02z"/><path d="m200.18 99.4a1.69 1.69 0 0 1 1.67 1.66 1.67 1.67 0 0 1 -1.69 1.64 1.62 1.62 0 0 1 -1.61-1.6 1.67 1.67 0 0 1 1.63-1.7z"/><path d="m200.23 282.49a1.7 1.7 0 0 1 1.62 1.72 1.67 1.67 0 0 1 -1.74 1.58 1.61 1.61 0 0 1 -1.56-1.65 1.67 1.67 0 0 1 1.68-1.65z"/><path d="m200.18 292.76a1.72 1.72 0 0 1 -1.64-1.7 1.68 1.68 0 0 1 1.73-1.6 1.61 1.61 0 0 1 1.57 1.63 1.66 1.66 0 0 1 -1.66 1.67z"/><path d="m173.12 298.54a1.45 1.45 0 0 1 -.36 0c-.57-.16-1.58.5-1.55-.8a1.91 1.91 0 0 1 2-1.79 1.8 1.8 0 0 1 1.32.73 1.65 1.65 0 0 1 .35 1.56c-.1.32-.14.3-1.76.3z"/><path d="m206.89 292.7a1.6 1.6 0 1 1 1.63-1.57 1.63 1.63 0 0 1 -1.63 1.57z"/><path d="m206.89 282.54a1.61 1.61 0 1 1 -1.57 1.63 1.65 1.65 0 0 1 1.57-1.63z"/><path d="m206.89 99.45a1.6 1.6 0 1 1 -1.57 1.63 1.65 1.65 0 0 1 1.57-1.63z"/><path d="m152.67 277a7.85 7.85 0 0 1 .84 0c.37.05.89-.22 1.09.18a1.43 1.43 0 0 1 -.28 1.45 2 2 0 0 1 -2.85.45 1.66 1.66 0 0 1 -.73-1.77c.2-.68.89-.19 1.34-.31a2.91 2.91 0 0 1 .59 0z"/><path d="m159.45 277a4.21 4.21 0 0 1 .71 0c.39.09 1-.28 1.15.26a1.53 1.53 0 0 1 -.37 1.45 2 2 0 0 1 -2.7.35 1.61 1.61 0 0 1 -.74-1.76c.2-.66.89-.18 1.35-.3a3 3 0 0 1 .6 0z"/><path d="m166.22 276.94a4.31 4.31 0 0 1 .72 0c.36.07.86-.25 1.06.24a1.43 1.43 0 0 1 -.26 1.25 1.89 1.89 0 0 1 -2.81.47 1.57 1.57 0 0 1 -.67-1.68c.18-.57.82-.19 1.25-.28a4.19 4.19 0 0 1 .71 0z"/><path d="m134.44 87.24c.11.63-.31.74-.71.59a21 21 0 0 0 -3-.69c-.58-.11-.5-.44-.32-.77a2.05 2.05 0 0 1 2.3-1.11 2.11 2.11 0 0 1 1.73 1.98z"/><path d="m179.72 298.61c-.55-.38-1.68.58-1.72-.83a1.8 1.8 0 0 1 1.77-1.76 1.76 1.76 0 0 1 1.82 1.82c-.13 1.43-1.3.33-1.87.77z"/><path d="m173.16 276.94a2.44 2.44 0 0 1 .47 0c.44.08 1.09-.28 1.28.26a1.52 1.52 0 0 1 -.69 1.67 1.73 1.73 0 0 1 -2.3 0 1.56 1.56 0 0 1 -.69-1.57c.19-.73.88-.23 1.33-.35a2.39 2.39 0 0 1 .6-.01z"/><path d="m193.32 298.54c-.42-.31-1.49.63-1.53-.71a1.69 1.69 0 1 1 3.38 0c-.02.71-.02.71-1.85.71z"/><path d="m186.44 298.54c-.45-.33-1.55.67-1.64-.7a1.64 1.64 0 0 1 1.7-1.75 1.67 1.67 0 0 1 1.75 1.72c0 .73 0 .73-1.81.73z"/><path d="m193.73 68.67a1.74 1.74 0 0 1 -1.94-1.75 1.33 1.33 0 0 1 .81-1.33c.36-.14 2.55 1.7 2.43 2a1.48 1.48 0 0 1 -1.3 1.08z"/><path d="m146 82.73a2.15 2.15 0 0 1 -1.59-.78 1.55 1.55 0 0 1 -.41-1.54c.31-.64.83 0 1.24 0a7.76 7.76 0 0 1 1.79.41c.3.12.82-.21.89.33s-.29.8-.62 1.09a2.27 2.27 0 0 1 -1.3.49z"/><path d="m213.63 285.66c-1-.13-1.51-.63-1.48-1.57a1.49 1.49 0 0 1 3 .11 1.43 1.43 0 0 1 -1.52 1.46z"/><path d="m222.06 284.2a1.43 1.43 0 0 1 -1.48 1.39 1.41 1.41 0 0 1 -1.42-1.55 1.34 1.34 0 0 1 1.5-1.33 1.4 1.4 0 0 1 1.4 1.49z"/><path d="m213.85 99.56a1.45 1.45 0 0 1 1.51 1.5 1.42 1.42 0 0 1 -1.52 1.47 1.38 1.38 0 0 1 -1.45-1.43 1.44 1.44 0 0 1 1.46-1.54z"/><path d="m220.76 99.61a1.37 1.37 0 0 1 1.24 1.39 1.4 1.4 0 0 1 -1.52 1.45 1.37 1.37 0 0 1 -1.37-1.49 1.46 1.46 0 0 1 1.65-1.35z"/><path d="m222.06 291.13a1.42 1.42 0 0 1 -1.46 1.41 1.39 1.39 0 0 1 -1.44-1.52 1.33 1.33 0 0 1 1.49-1.35c.89.03 1.35.59 1.41 1.46z"/><path d="m213.49 289.59c1 .06 1.6.5 1.63 1.46a1.49 1.49 0 0 1 -3 .11 1.43 1.43 0 0 1 1.37-1.57z"/><path d="m173.17 89.27a2 2 0 0 1 -1.76-1.1 1.23 1.23 0 0 1 0-1.35c.33-.44.7 0 1 .06a4.38 4.38 0 0 1 1.34.29c.39.23 1.12 0 1.14.48a1.53 1.53 0 0 1 -1.08 1.43c-.22.08-.46.13-.64.19z"/><path d="m200.21 298.6c-.54-.33-1.56.51-1.66-.75a1.65 1.65 0 1 1 3.3 0c-.08 1.25-1.1.43-1.64.75z"/><path d="m228.72 107.82a1.42 1.42 0 0 1 -1.36 1.35 1.4 1.4 0 0 1 -1.44-1.44 1.38 1.38 0 0 1 1.4-1.36 1.45 1.45 0 0 1 1.4 1.45z"/><path d="m227.3 282.73a1.43 1.43 0 0 1 1.41 1.37 1.41 1.41 0 0 1 -1.44 1.44 1.34 1.34 0 0 1 -1.34-1.41 1.38 1.38 0 0 1 1.37-1.4z"/><path d="m227.35 292.52a1.43 1.43 0 0 1 -1.43-1.34 1.4 1.4 0 0 1 1.41-1.47 1.33 1.33 0 0 1 1.37 1.38 1.39 1.39 0 0 1 -1.35 1.43z"/><path d="m200.24 95.76a1.7 1.7 0 0 1 -1.67-1.4c-.19-.85.23-1.18 1.1-1 .35.06.67.16 1 .23.51.11 1.21 0 1.12.78a1.6 1.6 0 0 1 -1.55 1.39z"/><path d="m206.88 298.59c-.55-.24-1.49.44-1.56-.75a1.6 1.6 0 1 1 3.19 0c-.07 1.27-1.1.45-1.63.75z"/><path d="m227 99.82c.8.1 1.59.15 1.7 1.15a1.42 1.42 0 0 1 -1.4 1.48 1.34 1.34 0 0 1 -1.38-1.38c0-.67.31-1.24 1.08-1.25z"/><path d="m119 75.9a2.14 2.14 0 0 1 -1.53-.43c-.51-.42-1-1-.78-1.61s.81.1 1.25.11a5.78 5.78 0 0 1 1.67.38c.38.12 1.05-.1 1.07.45s-.6.79-1.07 1a2.15 2.15 0 0 1 -.61.1z"/><path d="m200.33 276.94c.4.33 1.36-.58 1.5.56.1.79-.78 1.57-1.62 1.58a1.71 1.71 0 0 1 -1.66-1.55c-.03-.59-.03-.59 1.78-.59z"/><path d="m93.77 68.25c-1.53 1.61-3.49 1.39-4.22-.31-.09-.2-.3-.44-.11-.64a.69.69 0 0 1 .57-.07c1.22.31 2.43.65 3.76 1.02z"/><path d="m235.35 107.78a1.25 1.25 0 0 1 -1.3 1.29 1.22 1.22 0 0 1 -1.32-1.37 1.2 1.2 0 0 1 1.34-1.23 1.25 1.25 0 0 1 1.28 1.31z"/><path d="m213.63 298.6c-.51-.28-1.51.46-1.48-.78a1.49 1.49 0 1 1 3 0c-.02 1.27-1.03.48-1.52.78z"/><path d="m220.65 298.57c-.45-.28-1.46.52-1.49-.71a1.44 1.44 0 0 1 2.87-.1c.1 1.14-.79.68-1.38.81z"/><path d="m206.87 276.84c.57.36 1.45-.42 1.63.61a1.56 1.56 0 0 1 -1.61 1.57 1.47 1.47 0 0 1 -1.54-1.51c.06-1.18 1.12-.18 1.52-.67z"/><path d="m222.06 107.71c-.08.44-.14 1.18-.61 1-.75-.38-2 .13-2.25-1-.15-.78.53-1.31 1.36-1.33a1.41 1.41 0 0 1 1.5 1.33z"/><path d="m159.2 92.15a1.93 1.93 0 0 1 1.61.57 1.36 1.36 0 0 1 .5 1.38c-.26.63-.69-.1-1.09 0a3 3 0 0 1 -1.55-.36c-.33-.16-.94.2-1-.4s.47-.79.91-1a2.83 2.83 0 0 1 .62-.19z"/><path d="m227.32 298.56c-.51-.14-1.4.37-1.39-.71a1.39 1.39 0 1 1 2.77-.05c.05 1.07-.81.66-1.38.76z"/><path d="m241 106.54a1.15 1.15 0 0 1 1.17 1.24 1.22 1.22 0 1 1 -2.43-.08c.07-.76.54-1.12 1.26-1.16z"/><path d="m220.7 278.88a1.42 1.42 0 0 1 -1.42-.85c-.26-.62-.32-1.19.67-1.09a4.45 4.45 0 0 1 .82 0c.43.13 1.24-.47 1.25.51a1.34 1.34 0 0 1 -1.32 1.43z"/><path d="m213.68 276.86c.45.37 1.42-.49 1.42.68a1.47 1.47 0 0 1 -2.93 0c.01-1.25 1.07-.24 1.51-.68z"/><path d="m234.75 284.15c0 .62.23 1.37-.76 1.3a1.31 1.31 0 0 1 0-2.61c1.12-.04.66.84.76 1.31z"/><path d="m228.72 277.5a1.37 1.37 0 0 1 -1.39 1.31 1.35 1.35 0 0 1 -1.41-1.31c0-.19 0-.48.19-.49.79-.05 1.58-.05 2.37 0 .23-.01.23.25.24.49z"/><path d="m234.75 291.12c0 .6.23 1.35-.75 1.29a1.31 1.31 0 0 1 0-2.61c1.11-.05.65.83.75 1.32z"/><path d="m248.9 107.74a1.18 1.18 0 0 1 -1.21 1.19 1.16 1.16 0 1 1 0-2.32c.72 0 1.08.46 1.21 1.13z"/><path d="m255.5 114.48c-.08.71-.46 1.08-1.11 1.06a1.05 1.05 0 0 1 .08-2.1 1 1 0 0 1 1.03 1.04z"/><path d="m100.66 80-3.26-.73c-.15 0-.32 0-.39-.19s.14-.34.29-.44c1.12-.81 2.58-.26 3.36 1.36z"/><path d="m254.45 108.83a1 1 0 0 1 -1.07-1 1.05 1.05 0 1 1 2.1-.08 1 1 0 0 1 -1.03 1.08z"/><path d="m181.46 66.53c.4 1.5-.5 2.44-2.13 2.13z"/><path d="m248 115c-.29-.52-1.35.15-1.41-.73a1 1 0 0 1 1.17-.92 1.14 1.14 0 0 1 1.1 1.19c.04.55-.42.4-.86.46z"/><path d="m261.38 115.47c-.6-.08-1-.39-.95-1a.89.89 0 0 1 1-.93.87.87 0 0 1 .89.93.94.94 0 0 1 -.94 1z"/><path d="m234 296.5c.29.09.78 0 .7.54-.14.91-.83 1.21-1.64 1.33-.28 0-.42-.17-.38-.59a1.3 1.3 0 0 1 1.32-1.28z"/><path d="m233.22 277c.56 0 1.57.94 1.53 1.35s-.44.44-.71.43a1.26 1.26 0 0 1 -1.32-1.26c-.04-.44.16-.65.5-.52z"/><path d="m268.06 113.57a.92.92 0 0 1 .94.91.9.9 0 0 1 -1.79.08.93.93 0 0 1 .85-.99z"/><path d="m140.23 285.63v-3a1.71 1.71 0 0 1 0 3z"/><path d="m140.23 292.79v-3.17c1.15.78 1.2 1.79 0 3.17z"/><path d="m274.89 113.75a.69.69 0 0 1 .67.8.67.67 0 0 1 -.79.67.66.66 0 0 1 -.67-.79.69.69 0 0 1 .79-.68z"/><path d="m232.65 101.37c.66-.26 1.15.16 1.69.16.29 0 .6.11.58.4s-.39.35-.66.4c-.79.15-1.26-.33-1.61-.96z"/><path d="m124.49 85.57a2.09 2.09 0 0 1 2.88.53c-1.14.24-1.96-.48-2.88-.53z"/><path d="m282.19 121.43a.65.65 0 0 1 -.57.65.62.62 0 0 1 -.71-.62.6.6 0 0 1 .56-.64c.41-.05.64.18.72.61z"/><path d="m282.2 114.44c-.05.4-.25.65-.59.68a.61.61 0 0 1 -.7-.63.6.6 0 0 1 .57-.63c.42-.05.62.25.72.58z"/><path d="m205.45 94.82a4.15 4.15 0 0 1 2.36.59c-.91.51-1.6.32-2.36-.59z"/><path d="m261 107.76c.17.55 1-.13 1.13.57 0 .3-.41.42-.75.4a.88.88 0 0 1 -.86-.69c-.13-.29.15-.26.48-.28z"/><path d="m151.09 81.86a9.32 9.32 0 0 1 2.57.6 2.19 2.19 0 0 1 -2.57-.6z"/><path d="m141.18 298c-.91-.39-.77-1.14-1.17-2a2.38 2.38 0 0 1 1.17 2z"/><path d="m141.1 277.15a2.07 2.07 0 0 1 -.84 1.94 2.55 2.55 0 0 1 .84-1.94z"/><path d="m215.12 107a2.68 2.68 0 0 1 -2-.59 1.48 1.48 0 0 1 2 .59z"/><path d="m289 121.4c-.09.32-.23.52-.5.49a.43.43 0 0 1 -.42-.47.44.44 0 0 1 .47-.42c.26 0 .34.25.45.4z"/><path d="m275.68 121.52c-.66-.17-1-.43-1.68-.28.77-.76 1.21-.66 1.68.28z"/><path d="m288.07 114.59c0-.27.15-.38.28-.33a2.31 2.31 0 0 1 .54.36c-.11.1-.21.27-.33.29-.28.09-.38-.18-.49-.32z"/></g><circle cx="197.56" cy="69.6" fill="#fff" r="8.21"/><path d="m197.56 79.81a10.21 10.21 0 1 1 10.21-10.21 10.22 10.22 0 0 1 -10.21 10.21zm0-16.42a6.21 6.21 0 1 0 6.21 6.21 6.21 6.21 0 0 0 -6.21-6.21z" fill="#231f20"/><path d="m152.38 274.02h90.35v17.32h-90.35z" fill="#fff"/><path d="m242.74 293.34h-90.36a2 2 0 0 1 -2-2v-17.34a2 2 0 0 1 2-2h90.36a2 2 0 0 1 2 2v17.32a2 2 0 0 1 -2 2.02zm-88.36-4h86.36v-13.34h-86.36z" fill="#231f20"/><path d="m189.54 85.73-95.43-22.64-1.29 5.42 96.72 22.95z" fill="#fff"/><path d="m189.55 93.46a1.89 1.89 0 0 1 -.47-.06l-96.72-22.94a2 2 0 0 1 -1.49-2.41l1.29-5.43a2 2 0 0 1 2.41-1.48l95.43 22.64a2 2 0 0 1 1.54 2v5.73a2 2 0 0 1 -2 2zm-94.32-26.46 92.32 21.9v-1.59l-92-21.82z" fill="#231f20"/><path d="m205.57 89.53v5.73l95.44 22.65 1.29-5.43z" fill="#fff"/><path d="m301 119.91a1.88 1.88 0 0 1 -.46-.06l-95.43-22.64a2 2 0 0 1 -1.54-1.95v-5.73a2 2 0 0 1 2.43-1.94l96.72 23a2 2 0 0 1 1.24.89 2 2 0 0 1 .25 1.51l-1.21 5.38a2 2 0 0 1 -2 1.54zm-93.43-26.23 92 21.82.36-1.53-92.36-21.91z" fill="#231f20"/><path d="m189.55 77.81h16.03v196.21h-16.03z" fill="#fff"/><path d="m205.57 276h-16a2 2 0 0 1 -2-2v-196.19a2 2 0 0 1 2-2h16a2 2 0 0 1 2 2v196.19a2 2 0 0 1 -2 2zm-14-4h12v-192.19h-12z" fill="#231f20"/><circle cx="197.56" cy="69.6" fill="#fff" r="8.21" transform="matrix(.97325912 -.22971002 .22971002 .97325912 -10.71 47.25)"/><path d="m197.56 79.81a10.21 10.21 0 1 1 10.21-10.21 10.22 10.22 0 0 1 -10.21 10.21zm0-16.42a6.21 6.21 0 1 0 6.21 6.21 6.21 6.21 0 0 0 -6.21-6.21z" fill="#231f20"/><path d="m301.01 117.91 1.29-5.43-96.73-22.95v-11.72h-8.01-8.02v7.92l-95.43-22.64-1.29 5.42 96.72 22.95v182.56h-37.16v17.32h90.36v-17.32h-37.17v-178.76z" fill="#fff"/><path d="m242.74 293.34h-90.36a2 2 0 0 1 -2-2v-17.34a2 2 0 0 1 2-2h35.17v-179l-95.19-22.54a2 2 0 0 1 -1.49-2.41l1.29-5.43a2 2 0 0 1 2.41-1.48l93 22.06v-5.39a2 2 0 0 1 2-2h16a2 2 0 0 1 2 2v10.19l95.19 22.59a2 2 0 0 1 1.24.89 2 2 0 0 1 .25 1.51l-1.25 5.38a2 2 0 0 1 -2.41 1.48l-93-22.06v174.21h35.17a2 2 0 0 1 2 2v17.32a2 2 0 0 1 -2.02 2.02zm-88.36-4h86.36v-13.34h-35.17a2 2 0 0 1 -2-2v-178.74a2 2 0 0 1 .76-1.57 2 2 0 0 1 1.71-.37l93.49 22.18.36-1.53-94.78-22.49a2 2 0 0 1 -1.54-2v-9.67h-12v5.92a2 2 0 0 1 -2.47 2l-93.51-22.24-.36 1.51 94.77 22.51a2 2 0 0 1 1.54 1.95v182.54a2 2 0 0 1 -2 2h-35.16z" fill="#231f20"/></svg>